<?xml version="1.0" encoding="UTF-8"?> <!-- Generator: Adobe Illustrator 26.0.1, SVG Export Plug-In . SVG Version: 6.00 Build 0) --> <svg xmlns="http://www.w3.org/2000/svg" xmlns:xlink="http://www.w3.org/1999/xlink" version="1.1" id="_x3C_Layer_x3E_" x="0px" y="0px" viewBox="0 0 2760 1840" style="enable-background:new 0 0 2760 1840;" xml:space="preserve"> <style type="text/css"> .st0{display:none;fill:#FFFFFF;} .st1{display:none;} .st2{display:inline;} .st3{fill:#DDE7FE;} .st4{fill:#C7DBF9;} .st5{fill:#BDD1F9;} .st6{fill:#7C9AF2;} .st7{fill:#91B5F8;} .st8{fill:#060633;} .st9{fill:#8F9FFF;} .st10{fill:#6C7AFF;} .st11{fill:#ABBBFF;} .st12{fill:#FA7267;} .st13{fill:#FF8B85;} .st14{fill:#6184DB;} .st15{fill:#FFFFFF;} .st16{opacity:0.7;} .st17{fill:#050521;} .st18{fill:#FAFCFF;} .st19{fill:#3862C1;} .st20{fill:#F9A58F;} .st21{fill:#2F3DBC;} .st22{fill:#171775;} .st23{fill:#E58876;} .st24{fill:#EA6868;} .st25{fill:#240D39;} .st26{fill:#272035;} .st27{fill:#131375;} .st28{fill:#6C81EA;} .st29{fill:#D36857;} .st30{opacity:0.3;} .st31{fill:#0B0755;} .st32{fill:#E27D7D;} .st33{fill:#E7EEFD;} </style> <rect class="st0" width="2760" height="1840"></rect> <g> <g class="st1"> <g class="st2"> <path class="st3" d="M2260.9,1558.9c-74.5,20-248.6,3.4-321.7-0.9l-1509.8,0.7c-205.8-131.7-441.5-543,41.8-880.2 C656.5,549.2,407.8,297.7,832,190.1c393.9-99.9,308.5,157.4,868.8-21.8c420.6-134.5,588.7,176,618.4,276.7 c15.2,51.2,19.1,105.9,32.3,157.8c36.5,143.3,158.3,173,225.5,332.4C2647.3,1101.9,2639.3,1457.6,2260.9,1558.9z"></path> </g> </g> <g> <g> <path class="st4" d="M2526.7,1527.2c0-84.7-502.1-153.4-1121.5-153.4c-619.4,0-1121.5,68.7-1121.5,153.4 c0,84.7,502.1,153.4,1121.5,153.4C2024.6,1680.6,2526.7,1611.9,2526.7,1527.2z"></path> </g> </g> <g> <g> <path class="st5" d="M1157.9,670.9c0.1,0,0.2,0,0.3,0c0.7-0.2,1.1-0.9,0.9-1.6c-49-181.3-94.6-309.6-128.4-361.3 c-0.8-1.1-1.3-2-1.5-2.4c-0.3-0.6-1.1-0.9-1.7-0.6c-0.6,0.3-0.9,1.1-0.6,1.7c0.3,0.6,0.8,1.4,1.7,2.7 c33.7,51.5,79.1,179.5,128,360.5C1156.7,670.5,1157.3,670.9,1157.9,670.9z"></path> </g> <g> <path class="st5" d="M1006.4,298c4,5.8,24.7,16.8,26.4,15.7c1.7-1.1-1.3-24.4-5.4-30.2c-4-5.8-12-7.3-17.8-3.2 C1003.8,284.2,1002.3,292.2,1006.4,298z"></path> </g> <g> <path class="st5" d="M1046.4,316.4c-2.3,6.9,1.5,30.6,3.4,31.2c2,0.6,19.1-16.1,21.4-23c2.3-6.9-1.4-14.3-8.3-16.5 C1056.1,305.9,1048.7,309.6,1046.4,316.4z"></path> </g> <g> <path class="st5" d="M1020.2,357c7.2,0.7,29.5-8.3,29.6-10.4c0.2-2.1-20-15-27.2-15.7c-7.2-0.7-13.6,4.6-14.2,11.8 C1007.8,350,1013,356.3,1020.2,357z"></path> </g> <g> <path class="st5" d="M1104.8,437.3c-5,11-3.1,51.3,0.1,52.7c3.1,1.4,34.8-23.5,39.9-34.5c5-11,0.2-24-10.9-29.1 C1122.8,421.4,1109.8,426.3,1104.8,437.3z"></path> </g> <g> <path class="st5" d="M1053.7,500.3c11.9,2.4,50.7-8.5,51.4-11.9c0.7-3.4-30.7-28.7-42.6-31.1c-11.9-2.4-23.5,5.2-25.9,17.1 C1034.2,486.3,1041.8,497.8,1053.7,500.3z"></path> </g> <g> <path class="st5" d="M1135,483.2c-9,11.8-17.5,60.4-14.1,63c3.4,2.6,47.9-18.6,56.9-30.4c9-11.8,6.7-28.7-5.1-37.6 C1160.9,469.1,1144,471.4,1135,483.2z"></path> </g> <g> <path class="st5" d="M1062.2,565.4c14.8,1.4,60.6-16.8,61-21c0.4-4.2-41-31-55.8-32.5c-14.8-1.4-27.9,9.3-29.4,24.1 C1036.6,550.8,1047.4,563.9,1062.2,565.4z"></path> </g> <g> <path class="st5" d="M1152.9,542.3c-9,11.8-17.5,60.4-14.1,63c3.4,2.6,47.9-18.6,56.9-30.5c9-11.8,6.7-28.7-5.1-37.6 C1178.7,528.2,1161.8,530.5,1152.9,542.3z"></path> </g> <g> <path class="st5" d="M1080,624.5c14.8,1.4,60.6-16.8,61-21c0.4-4.2-41-31-55.8-32.5c-14.8-1.4-27.9,9.3-29.4,24.1 C1054.5,610,1065.3,623.1,1080,624.5z"></path> </g> <g> <path class="st5" d="M1193.5,617.2c-12.8,7.5-39.2,49.2-37,52.8c2.1,3.7,51.4,1,64.2-6.5c12.8-7.5,17.1-24,9.6-36.8 C1222.8,614,1206.3,609.7,1193.5,617.2z"></path> </g> <g> <path class="st5" d="M1095.6,683c14.5,3.3,62.2-9.1,63.2-13.2c0.9-4.1-36.8-35.9-51.3-39.2c-14.5-3.3-28.9,5.8-32.1,20.2 C1072.1,665.3,1081.2,679.7,1095.6,683z"></path> </g> <g> <path class="st5" d="M1064.4,354.1c-2.3,7,1.5,31.1,3.5,31.7c2,0.7,19.4-16.4,21.7-23.4c2.3-7-1.5-14.5-8.4-16.8 S1066.7,347.1,1064.4,354.1z"></path> </g> <g> <path class="st5" d="M1038.7,395.8c7.3,0.7,29.9-8.5,30.1-10.5c0.2-2.1-20.4-15.2-27.7-15.9c-7.3-0.7-13.8,4.7-14.5,12 C1026.1,388.6,1031.4,395.1,1038.7,395.8z"></path> </g> <g> <path class="st5" d="M1085.2,389.1c-4.1,9.6-1.5,44.2,1.2,45.3c2.7,1.2,29.4-21,33.5-30.5c4.1-9.6-0.4-20.7-10-24.8 C1100.4,375.1,1089.3,379.6,1085.2,389.1z"></path> </g> <g> <path class="st5" d="M1044,448.3c10.4,1,42.5-12,42.8-15c0.3-3-28.9-21.6-39.3-22.6c-10.4-1-19.6,6.7-20.5,17 C1026,438.1,1033.6,447.3,1044,448.3z"></path> </g> </g> <g> <g> <path class="st6" d="M1102.2,732.5c0,0,97.6-224-311.2-325.9C791,406.5,850.1,836.4,1102.2,732.5z"></path> </g> <g> <path class="st7" d="M790.4,405.9l319,296.6C1120,638.4,1108.5,485.2,790.4,405.9z"></path> </g> <g> <path class="st8" d="M1096,690.7c0.2,0,0.3-0.1,0.4-0.2c0.3-0.3,0.2-0.7,0-1L790.9,405.4c-0.3-0.3-0.7-0.2-1,0 c-0.3,0.3-0.2,0.7,0,1l305.5,284.1C1095.6,690.7,1095.8,690.7,1096,690.7z"></path> </g> <g> <path class="st8" d="M950,554.9c0.3,0,0.6-0.3,0.6-0.7c0-0.4-0.3-0.7-0.7-0.7L834,551.9c-0.4,0-0.7,0.3-0.7,0.7 c0,0.4,0.3,0.7,0.7,0.7L950,554.9C949.9,554.9,950,554.9,950,554.9z"></path> </g> <g> <path class="st8" d="M1015.4,615.8c0,0,0.1,0,0.1,0c0.4-0.1,0.6-0.5,0.5-0.9l-35.8-108c-0.1-0.4-0.5-0.6-0.9-0.5 c-0.4,0.1-0.6,0.5-0.5,0.9l35.8,108C1014.8,615.6,1015.1,615.8,1015.4,615.8z"></path> </g> </g> <g> <g> <path class="st7" d="M1012.9,728.3c0,0-3.8-197.8-339-134.8C673.8,593.4,862.5,889.8,1012.9,728.3z"></path> </g> <g> <path class="st6" d="M673.8,593.4l339,134.8C1012.9,728.3,893.3,904.2,673.8,593.4z"></path> </g> <g> <path class="st7" d="M757.7,664.3c0.1,0,0.1,0,0.1,0l84-6.3c0.6,0,1.1-0.6,1.1-1.2c0-0.6-0.6-1.1-1.2-1.1l-84,6.3 c-0.6,0-1.1,0.6-1.1,1.2C756.7,663.9,757.1,664.3,757.7,664.3z"></path> </g> <g> <path class="st7" d="M866.8,734.5c0.1,0,0.2,0,0.3,0L976.8,715c0.6-0.1,1-0.7,0.9-1.3c-0.1-0.6-0.7-1.1-1.3-0.9l-109.7,19.5 c-0.6,0.1-1,0.7-0.9,1.3C865.9,734,866.3,734.4,866.8,734.5z"></path> </g> </g> <g> <g> <path class="st6" d="M1925.4,1467.9c0,0-65.3-149.9,208.2-218.1C2133.7,1249.7,2094.1,1537.4,1925.4,1467.9z"></path> </g> <g> <path class="st7" d="M2134.1,1249.3l-213.5,198.5C1913.5,1404.9,1921.2,1302.4,2134.1,1249.3z"></path> </g> <g> <path class="st8" d="M1929.5,1439.9c-0.1,0-0.2-0.1-0.3-0.1c-0.2-0.2-0.2-0.5,0-0.7l204.5-190.1c0.2-0.2,0.5-0.2,0.7,0 c0.2,0.2,0.2,0.5,0,0.7l-204.5,190.1C1929.8,1439.9,1929.7,1439.9,1929.5,1439.9z"></path> </g> <g> <path class="st8" d="M2027.3,1349.1c-0.2,0-0.4-0.2-0.4-0.5c0-0.3,0.2-0.5,0.5-0.5l77.5-1.1c0.3,0,0.5,0.2,0.5,0.5 c0,0.3-0.2,0.5-0.5,0.5L2027.3,1349.1C2027.3,1349.1,2027.3,1349.1,2027.3,1349.1z"></path> </g> <g> <path class="st8" d="M1983.5,1389.8C1983.4,1389.8,1983.4,1389.8,1983.5,1389.8c-0.3-0.1-0.5-0.4-0.4-0.6l23.9-72.3 c0.1-0.3,0.4-0.4,0.6-0.3c0.2,0.1,0.4,0.4,0.3,0.6l-23.9,72.3C1983.9,1389.7,1983.7,1389.8,1983.5,1389.8z"></path> </g> </g> <g> <g> <path class="st7" d="M1971.8,1468.1c0,0,2.1-109.6,187.9-74.7C2159.7,1393.4,2055.2,1557.6,1971.8,1468.1z"></path> </g> <g> <path class="st6" d="M2159.7,1393.4l-187.9,74.7C1971.8,1468.1,2038.1,1565.6,2159.7,1393.4z"></path> </g> <g> <path class="st7" d="M2113.2,1432.7C2113.2,1432.7,2113.2,1432.7,2113.2,1432.7l-46.6-3.5c-0.4,0-0.6-0.3-0.6-0.7 c0-0.4,0.3-0.6,0.7-0.6l46.5,3.5c0.4,0,0.6,0.3,0.6,0.7C2113.8,1432.4,2113.5,1432.6,2113.2,1432.7z"></path> </g> <g> <path class="st7" d="M2052.7,1471.5c0,0-0.1,0-0.1,0l-60.8-10.8c-0.3-0.1-0.6-0.4-0.5-0.7c0.1-0.3,0.4-0.6,0.7-0.5l60.8,10.8 c0.3,0.1,0.6,0.4,0.5,0.7C2053.3,1471.3,2053,1471.5,2052.7,1471.5z"></path> </g> </g> <g> <g> <rect x="426.6" y="837.5" class="st9" width="100" height="322.5"></rect> </g> <g> <rect x="526.5" y="837.5" class="st10" width="241" height="322.5"></rect> </g> <g> <path class="st3" d="M459.9,877.8c0-9.2,7.5-16.7,16.7-16.7c9.2,0,16.7,7.5,16.7,16.7c0,9.2-7.5,16.7-16.7,16.7 C467.3,894.5,459.9,887,459.9,877.8z"></path> </g> <g> <path class="st10" d="M464.7,877.8c0-6.5,5.3-11.8,11.8-11.8c6.5,0,11.8,5.3,11.8,11.8c0,6.5-5.3,11.8-11.8,11.8 C470,889.6,464.7,884.3,464.7,877.8z"></path> </g> <g> <rect x="453.4" y="918" class="st3" width="47" height="84.9"></rect> </g> </g> <g> <g> <rect x="556.7" y="837.5" class="st11" width="100" height="322.5"></rect> </g> <g> <rect x="656.2" y="837.5" class="st6" width="241" height="322.5"></rect> </g> <g> <path class="st3" d="M589.6,877.8c0-9.2,7.5-16.7,16.7-16.7c9.2,0,16.7,7.5,16.7,16.7c0,9.2-7.5,16.7-16.7,16.7 C597.1,894.5,589.6,887,589.6,877.8z"></path> </g> <g> <path class="st10" d="M594.5,877.8c0-6.5,5.3-11.8,11.8-11.8c6.5,0,11.8,5.3,11.8,11.8c0,6.5-5.3,11.8-11.8,11.8 C599.8,889.6,594.5,884.3,594.5,877.8z"></path> </g> <g> <rect x="583.1" y="918" class="st3" width="47" height="84.9"></rect> </g> </g> <g> <g> <rect x="693.5" y="837.5" class="st11" width="100" height="322.5"></rect> </g> <g> <rect x="793.1" y="837.5" class="st6" width="241" height="322.5"></rect> </g> <g> <path class="st3" d="M726.4,877.8c0-9.2,7.5-16.7,16.7-16.7c9.2,0,16.7,7.5,16.7,16.7c0,9.2-7.5,16.7-16.7,16.7 C733.9,894.5,726.4,887,726.4,877.8z"></path> </g> <g> <path class="st10" d="M731.3,877.8c0-6.5,5.3-11.8,11.8-11.8c6.5,0,11.8,5.3,11.8,11.8c0,6.5-5.3,11.8-11.8,11.8 C736.6,889.6,731.3,884.3,731.3,877.8z"></path> </g> <g> <rect x="720" y="918" class="st3" width="47" height="84.9"></rect> </g> </g> <g> <g> <rect x="576.2" y="1047.5" class="st12" width="564.7" height="417.2"></rect> </g> <g> <rect x="390.6" y="1047.5" class="st13" width="447.8" height="417.2"></rect> </g> <g> <path class="st9" d="M634.2,1115.6h-116c-7.2,0-13.1-5.9-13.1-13.1v-1.7c0-7.2,5.9-13.1,13.1-13.1h116c7.2,0,13.1,5.9,13.1,13.1 v1.7C647.3,1109.8,641.4,1115.6,634.2,1115.6z"></path> </g> </g> <g> <g> <g> <g> <rect x="2104.1" y="344.7" transform="matrix(-1 -1.224647e-16 1.224647e-16 -1 4328.5098 1102.6484)" class="st6" width="120.3" height="413.2"></rect> </g> <g> <path class="st14" d="M2192.5,668.8c0-15.6-12.6-28.2-28.2-28.2c-15.6,0-28.2,12.6-28.2,28.2c0,15.6,12.6,28.2,28.2,28.2 C2179.8,697,2192.5,684.4,2192.5,668.8z"></path> </g> <g> <path class="st15" d="M2164.3,700.2c-17.2,0-31.2-14-31.2-31.2c0-17.2,14-31.2,31.2-31.2c17.2,0,31.2,14,31.2,31.2 C2195.4,686.2,2181.5,700.2,2164.3,700.2z M2164.3,643.7c-13.9,0-25.2,11.3-25.2,25.2c0,13.9,11.3,25.2,25.2,25.2 c13.9,0,25.2-11.3,25.2-25.2C2189.5,655.1,2178.2,643.7,2164.3,643.7z"></path> </g> <g class="st16"> <rect x="2129" y="363.6" transform="matrix(-1 -1.224647e-16 1.224647e-16 -1 4328.4766 959.5362)" class="st3" width="70.5" height="232.2"></rect> </g> <g> <rect x="2137.3" y="372.1" transform="matrix(-1 -1.224647e-16 1.224647e-16 -1 4327.0449 753.4179)" class="st12" width="52.5" height="9.3"></rect> </g> <g> <g> <rect x="2149.3" y="542.1" transform="matrix(6.123234e-17 -1 1 6.123234e-17 1631.1621 2719.9795)" class="st6" width="52.5" height="4.7"></rect> </g> <g> <rect x="2149.3" y="476.2" transform="matrix(6.123234e-17 -1 1 6.123234e-17 1697.019 2654.1226)" class="st6" width="52.5" height="4.7"></rect> </g> <g> <rect x="2122.6" y="542.1" transform="matrix(6.123234e-17 -1 1 6.123234e-17 1604.4565 2693.2739)" class="st6" width="52.5" height="4.7"></rect> </g> <g> <rect x="2122.6" y="476.2" transform="matrix(6.123234e-17 -1 1 6.123234e-17 1670.3135 2627.417)" class="st6" width="52.5" height="4.7"></rect> </g> <g> <rect x="2129.7" y="535.3" transform="matrix(6.123234e-17 -1 1 6.123234e-17 1625.1079 2700.4155)" class="st6" width="66" height="4.7"></rect> </g> <g> <rect x="2129.7" y="452.5" transform="matrix(6.123234e-17 -1 1 6.123234e-17 1707.9048 2617.6187)" class="st6" width="66" height="4.7"></rect> </g> </g> </g> <g> <g> <rect x="1966.7" y="344.7" transform="matrix(-1 -1.224647e-16 1.224647e-16 -1 4053.8379 1102.6484)" class="st6" width="120.3" height="413.2"></rect> </g> <g> <circle class="st14" cx="2026.9" cy="668.8" r="28.2"></circle> </g> <g> <path class="st15" d="M2026.9,700.2c-17.2,0-31.2-14-31.2-31.2c0-17.2,14-31.2,31.2-31.2s31.2,14,31.2,31.2 C2058.1,686.2,2044.1,700.2,2026.9,700.2z M2026.9,643.7c-13.9,0-25.2,11.3-25.2,25.2c0,13.9,11.3,25.2,25.2,25.2 c13.9,0,25.2-11.3,25.2-25.2C2052.1,655.1,2040.8,643.7,2026.9,643.7z"></path> </g> <g class="st16"> <rect x="1991.7" y="363.6" transform="matrix(-1 -1.224647e-16 1.224647e-16 -1 4053.8047 959.5362)" class="st3" width="70.5" height="232.2"></rect> </g> <g> <rect x="1999.9" y="372.1" transform="matrix(-1 -1.224647e-16 1.224647e-16 -1 4052.373 753.4179)" class="st12" width="52.5" height="9.3"></rect> </g> <g> <g> <rect x="2012" y="542.1" transform="matrix(6.123234e-17 -1 1 6.123234e-17 1493.8267 2582.644)" class="st6" width="52.5" height="4.7"></rect> </g> <g> <rect x="2012" y="476.2" transform="matrix(6.123234e-17 -1 1 6.123234e-17 1559.6836 2516.7871)" class="st6" width="52.5" height="4.7"></rect> </g> <g> <rect x="1985.3" y="542.1" transform="matrix(6.123234e-17 -1 1 6.123234e-17 1467.1206 2555.938)" class="st6" width="52.5" height="4.7"></rect> </g> <g> <rect x="1985.3" y="476.2" transform="matrix(6.123234e-17 -1 1 6.123234e-17 1532.9775 2490.0811)" class="st6" width="52.5" height="4.7"></rect> </g> <g> <rect x="1992.4" y="535.3" transform="matrix(6.123234e-17 -1 1 6.123234e-17 1487.772 2563.0796)" class="st6" width="66" height="4.7"></rect> </g> <g> <rect x="1992.4" y="452.5" transform="matrix(6.123234e-17 -1 1 6.123234e-17 1570.5688 2480.2827)" class="st6" width="66" height="4.7"></rect> </g> </g> </g> <g> <g> <rect x="1829.4" y="344.7" transform="matrix(-1 -1.224647e-16 1.224647e-16 -1 3779.166 1102.6484)" class="st6" width="120.3" height="413.2"></rect> </g> <g> <circle class="st14" cx="1889.6" cy="668.8" r="28.2"></circle> </g> <g> <path class="st15" d="M1889.6,700.2c-17.2,0-31.2-14-31.2-31.2c0-17.2,14-31.2,31.2-31.2c17.2,0,31.2,14,31.2,31.2 C1920.8,686.2,1906.8,700.2,1889.6,700.2z M1889.6,643.7c-13.9,0-25.2,11.3-25.2,25.2c0,13.9,11.3,25.2,25.2,25.2 s25.2-11.3,25.2-25.2C1914.8,655.1,1903.5,643.7,1889.6,643.7z"></path> </g> <g class="st16"> <rect x="1854.3" y="363.6" transform="matrix(-1 -1.224647e-16 1.224647e-16 -1 3779.1328 959.5362)" class="st3" width="70.5" height="232.2"></rect> </g> <g> <rect x="1862.6" y="372.1" transform="matrix(-1 -1.224647e-16 1.224647e-16 -1 3777.7021 753.4179)" class="st12" width="52.5" height="9.3"></rect> </g> <g> <g> <rect x="1874.6" y="542.1" transform="matrix(6.123234e-17 -1 1 6.123234e-17 1356.4907 2445.3081)" class="st6" width="52.5" height="4.7"></rect> </g> <g> <rect x="1874.6" y="476.2" transform="matrix(6.123234e-17 -1 1 6.123234e-17 1422.3477 2379.4512)" class="st6" width="52.5" height="4.7"></rect> </g> <g> <rect x="1847.9" y="542.1" transform="matrix(6.123234e-17 -1 1 6.123234e-17 1329.7852 2418.6025)" class="st6" width="52.5" height="4.7"></rect> </g> <g> <rect x="1847.9" y="476.2" transform="matrix(6.123234e-17 -1 1 6.123234e-17 1395.6421 2352.7456)" class="st6" width="52.5" height="4.7"></rect> </g> <g> <rect x="1855.1" y="535.3" transform="matrix(6.123234e-17 -1 1 6.123234e-17 1350.436 2425.7437)" class="st6" width="66" height="4.7"></rect> </g> <g> <rect x="1855.1" y="452.5" transform="matrix(6.123234e-17 -1 1 6.123234e-17 1433.2329 2342.9468)" class="st6" width="66" height="4.7"></rect> </g> </g> </g> <g> <g> <rect x="1692.1" y="344.7" transform="matrix(-1 -1.224647e-16 1.224647e-16 -1 3504.4941 1102.6484)" class="st6" width="120.3" height="413.2"></rect> </g> <g> <path class="st14" d="M1780.5,668.8c0-15.6-12.6-28.2-28.2-28.2c-15.6,0-28.2,12.6-28.2,28.2c0,15.6,12.6,28.2,28.2,28.2 C1767.8,697,1780.5,684.4,1780.5,668.8z"></path> </g> <g> <path class="st15" d="M1752.2,700.2c-17.2,0-31.2-14-31.2-31.2c0-17.2,14-31.2,31.2-31.2c17.2,0,31.2,14,31.2,31.2 C1783.4,686.2,1769.4,700.2,1752.2,700.2z M1752.2,643.7c-13.9,0-25.2,11.3-25.2,25.2c0,13.9,11.3,25.2,25.2,25.2 s25.2-11.3,25.2-25.2C1777.5,655.1,1766.2,643.7,1752.2,643.7z"></path> </g> <g class="st16"> <rect x="1717" y="363.6" transform="matrix(-1 -1.224647e-16 1.224647e-16 -1 3504.4619 959.5362)" class="st3" width="70.5" height="232.2"></rect> </g> <g> <rect x="1725.3" y="372.1" transform="matrix(-1 -1.224647e-16 1.224647e-16 -1 3503.0293 753.4179)" class="st12" width="52.5" height="9.3"></rect> </g> <g> <g> <rect x="1737.3" y="542.1" transform="matrix(6.123234e-17 -1 1 6.123234e-17 1219.1543 2307.9717)" class="st6" width="52.5" height="4.7"></rect> </g> <g> <rect x="1737.3" y="476.2" transform="matrix(6.123234e-17 -1 1 6.123234e-17 1285.0112 2242.1147)" class="st6" width="52.5" height="4.7"></rect> </g> <g> <rect x="1710.6" y="542.1" transform="matrix(6.123234e-17 -1 1 6.123234e-17 1192.4492 2281.2666)" class="st6" width="52.5" height="4.7"></rect> </g> <g> <rect x="1710.6" y="476.2" transform="matrix(6.123234e-17 -1 1 6.123234e-17 1258.3062 2215.4097)" class="st6" width="52.5" height="4.7"></rect> </g> <g> <rect x="1717.7" y="535.3" transform="matrix(6.123234e-17 -1 1 6.123234e-17 1213.1001 2288.4077)" class="st6" width="66" height="4.7"></rect> </g> <g> <rect x="1717.7" y="452.5" transform="matrix(6.123234e-17 -1 1 6.123234e-17 1295.897 2205.6108)" class="st6" width="66" height="4.7"></rect> </g> </g> </g> <g> <g> <rect x="1554.7" y="344.7" transform="matrix(-1 -1.224647e-16 1.224647e-16 -1 3229.8223 1102.6484)" class="st6" width="120.3" height="413.2"></rect> </g> <g> <circle class="st14" cx="1614.9" cy="668.8" r="28.2"></circle> </g> <g> <path class="st15" d="M1614.9,700.2c-17.2,0-31.2-14-31.2-31.2c0-17.2,14-31.2,31.2-31.2c17.2,0,31.2,14,31.2,31.2 C1646.1,686.2,1632.1,700.2,1614.9,700.2z M1614.9,643.7c-13.9,0-25.2,11.3-25.2,25.2c0,13.9,11.3,25.2,25.2,25.2 c13.9,0,25.2-11.3,25.2-25.2C1640.1,655.1,1628.8,643.7,1614.9,643.7z"></path> </g> <g class="st16"> <rect x="1579.7" y="363.6" transform="matrix(-1 -1.224647e-16 1.224647e-16 -1 3229.791 959.5362)" class="st3" width="70.5" height="232.2"></rect> </g> <g> <rect x="1587.9" y="372.1" transform="matrix(-1 -1.224647e-16 1.224647e-16 -1 3228.3574 753.4179)" class="st12" width="52.5" height="9.3"></rect> </g> <g> <g> <rect x="1600" y="542.1" transform="matrix(6.123234e-17 -1 1 6.123234e-17 1081.8184 2170.6357)" class="st6" width="52.5" height="4.7"></rect> </g> <g> <rect x="1600" y="476.2" transform="matrix(6.123234e-17 -1 1 6.123234e-17 1147.6753 2104.7788)" class="st6" width="52.5" height="4.7"></rect> </g> <g> <rect x="1573.3" y="542.1" transform="matrix(6.123234e-17 -1 1 6.123234e-17 1055.1133 2143.9307)" class="st6" width="52.5" height="4.7"></rect> </g> <g> <rect x="1573.3" y="476.2" transform="matrix(6.123234e-17 -1 1 6.123234e-17 1120.9702 2078.0737)" class="st6" width="52.5" height="4.7"></rect> </g> <g> <rect x="1580.4" y="535.3" transform="matrix(6.123234e-17 -1 1 6.123234e-17 1075.7642 2151.0718)" class="st6" width="66" height="4.7"></rect> </g> <g> <rect x="1580.4" y="452.5" transform="matrix(6.123234e-17 -1 1 6.123234e-17 1158.561 2068.2749)" class="st6" width="66" height="4.7"></rect> </g> </g> </g> <g> <g> <rect x="1417.4" y="344.7" transform="matrix(-1 -1.224647e-16 1.224647e-16 -1 2955.1504 1102.6484)" class="st6" width="120.3" height="413.2"></rect> </g> <g> <path class="st14" d="M1505.8,668.8c0-15.6-12.6-28.2-28.2-28.2c-15.6,0-28.2,12.6-28.2,28.2c0,15.6,12.6,28.2,28.2,28.2 C1493.2,697,1505.8,684.4,1505.8,668.8z"></path> </g> <g> <path class="st15" d="M1477.6,700.2c-17.2,0-31.2-14-31.2-31.2c0-17.2,14-31.2,31.2-31.2c17.2,0,31.2,14,31.2,31.2 C1508.8,686.2,1494.8,700.2,1477.6,700.2z M1477.6,643.7c-13.9,0-25.2,11.3-25.2,25.2c0,13.9,11.3,25.2,25.2,25.2 c13.9,0,25.2-11.3,25.2-25.2C1502.8,655.1,1491.5,643.7,1477.6,643.7z"></path> </g> <g class="st16"> <rect x="1442.3" y="363.6" transform="matrix(-1 -1.224647e-16 1.224647e-16 -1 2955.1182 959.5362)" class="st3" width="70.5" height="232.2"></rect> </g> <g> <rect x="1450.6" y="372.1" transform="matrix(-1 -1.224647e-16 1.224647e-16 -1 2953.6855 753.4179)" class="st12" width="52.5" height="9.3"></rect> </g> <g> <g> <rect x="1462.6" y="542.1" transform="matrix(6.123234e-17 -1 1 6.123234e-17 944.4829 2033.3003)" class="st6" width="52.5" height="4.7"></rect> </g> <g> <rect x="1462.6" y="476.2" transform="matrix(6.123234e-17 -1 1 6.123234e-17 1010.3398 1967.4434)" class="st6" width="52.5" height="4.7"></rect> </g> <g> <rect x="1435.9" y="542.1" transform="matrix(6.123234e-17 -1 1 6.123234e-17 917.7773 2006.5947)" class="st6" width="52.5" height="4.7"></rect> </g> <g> <rect x="1435.9" y="476.2" transform="matrix(6.123234e-17 -1 1 6.123234e-17 983.6342 1940.7378)" class="st6" width="52.5" height="4.7"></rect> </g> <g> <rect x="1443.1" y="535.3" transform="matrix(6.123234e-17 -1 1 6.123234e-17 938.4282 2013.7358)" class="st6" width="66" height="4.7"></rect> </g> <g> <rect x="1443.1" y="452.5" transform="matrix(6.123234e-17 -1 1 6.123234e-17 1021.2251 1930.939)" class="st6" width="66" height="4.7"></rect> </g> </g> </g> </g> <g> <g> <g> <rect x="1966.7" y="811.8" transform="matrix(-1 -1.224647e-16 1.224647e-16 -1 4053.8379 2036.7256)" class="st6" width="120.3" height="413.2"></rect> </g> <g> <path class="st14" d="M2055.1,1135.8c0-15.6-12.6-28.2-28.2-28.2c-15.6,0-28.2,12.6-28.2,28.2c0,15.6,12.6,28.2,28.2,28.2 C2042.5,1164,2055.1,1151.4,2055.1,1135.8z"></path> </g> <g> <path class="st15" d="M2026.9,1167.2c-17.2,0-31.2-14-31.2-31.2c0-17.2,14-31.2,31.2-31.2s31.2,14,31.2,31.2 C2058.1,1153.2,2044.1,1167.2,2026.9,1167.2z M2026.9,1110.8c-13.9,0-25.2,11.3-25.2,25.2s11.3,25.2,25.2,25.2 c13.9,0,25.2-11.3,25.2-25.2S2040.8,1110.8,2026.9,1110.8z"></path> </g> <g class="st16"> <rect x="1991.7" y="830.7" transform="matrix(-1 -1.224647e-16 1.224647e-16 -1 4053.8047 1893.6123)" class="st3" width="70.5" height="232.2"></rect> </g> <g> <rect x="1999.9" y="839.1" transform="matrix(-1 -1.224647e-16 1.224647e-16 -1 4052.373 1687.493)" class="st12" width="52.5" height="9.3"></rect> </g> <g> <g> <rect x="2012" y="1009.1" transform="matrix(6.123234e-17 -1 1 6.123234e-17 1026.7881 3049.6826)" class="st6" width="52.5" height="4.7"></rect> </g> <g> <rect x="2012" y="943.3" transform="matrix(6.123234e-17 -1 1 6.123234e-17 1092.6465 2983.8242)" class="st6" width="52.5" height="4.7"></rect> </g> <g> <rect x="1985.3" y="1009.1" transform="matrix(6.123234e-17 -1 1 6.123234e-17 1000.082 3022.9766)" class="st6" width="52.5" height="4.7"></rect> </g> <g> <rect x="1985.3" y="943.3" transform="matrix(6.123234e-17 -1 1 6.123234e-17 1065.9404 2957.1182)" class="st6" width="52.5" height="4.7"></rect> </g> <g> <rect x="1992.4" y="1002.4" transform="matrix(6.123234e-17 -1 1 6.123234e-17 1020.7334 3030.1182)" class="st6" width="66" height="4.7"></rect> </g> <g> <rect x="1992.4" y="919.6" transform="matrix(6.123234e-17 -1 1 6.123234e-17 1103.5317 2947.3198)" class="st6" width="66" height="4.7"></rect> </g> </g> </g> <g> <g> <rect x="1829.4" y="811.8" transform="matrix(-1 -1.224647e-16 1.224647e-16 -1 3779.166 2036.7256)" class="st6" width="120.3" height="413.2"></rect> </g> <g> <path class="st14" d="M1917.8,1135.8c0-15.6-12.6-28.2-28.2-28.2s-28.2,12.6-28.2,28.2c0,15.6,12.6,28.2,28.2,28.2 S1917.8,1151.4,1917.8,1135.8z"></path> </g> <g> <path class="st15" d="M1889.6,1167.2c-17.2,0-31.2-14-31.2-31.2c0-17.2,14-31.2,31.2-31.2c17.2,0,31.2,14,31.2,31.2 C1920.8,1153.2,1906.8,1167.2,1889.6,1167.2z M1889.6,1110.8c-13.9,0-25.2,11.3-25.2,25.2s11.3,25.2,25.2,25.2 s25.2-11.3,25.2-25.2S1903.5,1110.8,1889.6,1110.8z"></path> </g> <g class="st16"> <rect x="1854.3" y="830.7" transform="matrix(-1 -1.224647e-16 1.224647e-16 -1 3779.1328 1893.6123)" class="st3" width="70.5" height="232.2"></rect> </g> <g> <rect x="1862.6" y="839.1" transform="matrix(-1 -1.224647e-16 1.224647e-16 -1 3777.7021 1687.493)" class="st12" width="52.5" height="9.3"></rect> </g> <g> <g> <rect x="1874.6" y="1009.1" transform="matrix(6.123234e-17 -1 1 6.123234e-17 889.4521 2912.3467)" class="st6" width="52.5" height="4.7"></rect> </g> <g> <rect x="1874.6" y="943.3" transform="matrix(6.123234e-17 -1 1 6.123234e-17 955.3105 2846.4883)" class="st6" width="52.5" height="4.7"></rect> </g> <g> <rect x="1847.9" y="1009.1" transform="matrix(6.123234e-17 -1 1 6.123234e-17 862.7465 2885.6411)" class="st6" width="52.5" height="4.7"></rect> </g> <g> <rect x="1847.9" y="943.3" transform="matrix(6.123234e-17 -1 1 6.123234e-17 928.605 2819.7827)" class="st6" width="52.5" height="4.7"></rect> </g> <g> <rect x="1855.1" y="1002.4" transform="matrix(6.123234e-17 -1 1 6.123234e-17 883.3974 2892.7822)" class="st6" width="66" height="4.7"></rect> </g> <g> <rect x="1855.1" y="919.6" transform="matrix(6.123234e-17 -1 1 6.123234e-17 966.1957 2809.9839)" class="st6" width="66" height="4.7"></rect> </g> </g> </g> <g> <g> <rect x="1692.1" y="811.8" transform="matrix(-1 -1.224647e-16 1.224647e-16 -1 3504.4941 2036.7256)" class="st6" width="120.3" height="413.2"></rect> </g> <g> <path class="st14" d="M1780.5,1135.8c0-15.6-12.6-28.2-28.2-28.2c-15.6,0-28.2,12.6-28.2,28.2c0,15.6,12.6,28.2,28.2,28.2 C1767.8,1164,1780.5,1151.4,1780.5,1135.8z"></path> </g> <g> <path class="st15" d="M1752.2,1167.2c-17.2,0-31.2-14-31.2-31.2c0-17.2,14-31.2,31.2-31.2c17.2,0,31.2,14,31.2,31.2 C1783.4,1153.2,1769.4,1167.2,1752.2,1167.2z M1752.2,1110.8c-13.9,0-25.2,11.3-25.2,25.2s11.3,25.2,25.2,25.2 s25.2-11.3,25.2-25.2S1766.2,1110.8,1752.2,1110.8z"></path> </g> <g class="st16"> <rect x="1717" y="830.7" transform="matrix(-1 -1.224647e-16 1.224647e-16 -1 3504.4619 1893.6123)" class="st3" width="70.5" height="232.2"></rect> </g> <g> <rect x="1725.3" y="839.1" transform="matrix(-1 -1.224647e-16 1.224647e-16 -1 3503.0293 1687.493)" class="st12" width="52.5" height="9.3"></rect> </g> <g> <g> <rect x="1737.3" y="1009.1" transform="matrix(6.123234e-17 -1 1 6.123234e-17 752.1157 2775.0103)" class="st6" width="52.5" height="4.7"></rect> </g> <g> <rect x="1737.3" y="943.3" transform="matrix(6.123234e-17 -1 1 6.123234e-17 817.9741 2709.1519)" class="st6" width="52.5" height="4.7"></rect> </g> <g> <rect x="1710.6" y="1009.1" transform="matrix(6.123234e-17 -1 1 6.123234e-17 725.4106 2748.3052)" class="st6" width="52.5" height="4.7"></rect> </g> <g> <rect x="1710.6" y="943.3" transform="matrix(6.123234e-17 -1 1 6.123234e-17 791.269 2682.4468)" class="st6" width="52.5" height="4.7"></rect> </g> <g> <rect x="1717.7" y="1002.4" transform="matrix(6.123234e-17 -1 1 6.123234e-17 746.0615 2755.4463)" class="st6" width="66" height="4.7"></rect> </g> <g> <rect x="1717.7" y="919.6" transform="matrix(6.123234e-17 -1 1 6.123234e-17 828.8599 2672.6479)" class="st6" width="66" height="4.7"></rect> </g> </g> </g> <g> <g> <rect x="1554.7" y="811.8" transform="matrix(-1 -1.224647e-16 1.224647e-16 -1 3229.8223 2036.7256)" class="st6" width="120.3" height="413.2"></rect> </g> <g> <path class="st14" d="M1643.1,1135.8c0-15.6-12.6-28.2-28.2-28.2c-15.6,0-28.2,12.6-28.2,28.2c0,15.6,12.6,28.2,28.2,28.2 C1630.5,1164,1643.1,1151.4,1643.1,1135.8z"></path> </g> <g> <path class="st15" d="M1614.9,1167.2c-17.2,0-31.2-14-31.2-31.2c0-17.2,14-31.2,31.2-31.2c17.2,0,31.2,14,31.2,31.2 C1646.1,1153.2,1632.1,1167.2,1614.9,1167.2z M1614.9,1110.8c-13.9,0-25.2,11.3-25.2,25.2s11.3,25.2,25.2,25.2 c13.9,0,25.2-11.3,25.2-25.2S1628.8,1110.8,1614.9,1110.8z"></path> </g> <g class="st16"> <rect x="1579.7" y="830.7" transform="matrix(-1 -1.224647e-16 1.224647e-16 -1 3229.791 1893.6123)" class="st3" width="70.5" height="232.2"></rect> </g> <g> <rect x="1587.9" y="839.1" transform="matrix(-1 -1.224647e-16 1.224647e-16 -1 3228.3574 1687.493)" class="st12" width="52.5" height="9.3"></rect> </g> <g> <g> <rect x="1600" y="1009.1" transform="matrix(6.123234e-17 -1 1 6.123234e-17 614.7797 2637.6743)" class="st6" width="52.5" height="4.7"></rect> </g> <g> <rect x="1600" y="943.3" transform="matrix(6.123234e-17 -1 1 6.123234e-17 680.6381 2571.8159)" class="st6" width="52.5" height="4.7"></rect> </g> <g> <rect x="1573.3" y="1009.1" transform="matrix(6.123234e-17 -1 1 6.123234e-17 588.0747 2610.9692)" class="st6" width="52.5" height="4.7"></rect> </g> <g> <rect x="1573.3" y="943.3" transform="matrix(6.123234e-17 -1 1 6.123234e-17 653.9331 2545.1108)" class="st6" width="52.5" height="4.7"></rect> </g> <g> <rect x="1580.4" y="1002.4" transform="matrix(6.123234e-17 -1 1 6.123234e-17 608.7255 2618.1104)" class="st6" width="66" height="4.7"></rect> </g> <g> <rect x="1580.4" y="919.6" transform="matrix(6.123234e-17 -1 1 6.123234e-17 691.5239 2535.312)" class="st6" width="66" height="4.7"></rect> </g> </g> </g> <g> <g> <rect x="1417.4" y="811.8" transform="matrix(-1 -1.224647e-16 1.224647e-16 -1 2955.1504 2036.7256)" class="st6" width="120.3" height="413.2"></rect> </g> <g> <path class="st14" d="M1505.8,1135.8c0-15.6-12.6-28.2-28.2-28.2c-15.6,0-28.2,12.6-28.2,28.2c0,15.6,12.6,28.2,28.2,28.2 C1493.2,1164,1505.8,1151.4,1505.8,1135.8z"></path> </g> <g> <path class="st15" d="M1477.6,1167.2c-17.2,0-31.2-14-31.2-31.2c0-17.2,14-31.2,31.2-31.2c17.2,0,31.2,14,31.2,31.2 C1508.8,1153.2,1494.8,1167.2,1477.6,1167.2z M1477.6,1110.8c-13.9,0-25.2,11.3-25.2,25.2s11.3,25.2,25.2,25.2 c13.9,0,25.2-11.3,25.2-25.2S1491.5,1110.8,1477.6,1110.8z"></path> </g> <g class="st16"> <rect x="1442.3" y="830.7" transform="matrix(-1 -1.224647e-16 1.224647e-16 -1 2955.1182 1893.6123)" class="st3" width="70.5" height="232.2"></rect> </g> <g> <rect x="1450.6" y="839.1" transform="matrix(-1 -1.224647e-16 1.224647e-16 -1 2953.6855 1687.493)" class="st12" width="52.5" height="9.3"></rect> </g> <g> <g> <rect x="1462.6" y="1009.1" transform="matrix(6.123234e-17 -1 1 6.123234e-17 477.4443 2500.3389)" class="st6" width="52.5" height="4.7"></rect> </g> <g> <rect x="1462.6" y="943.3" transform="matrix(6.123234e-17 -1 1 6.123234e-17 543.3027 2434.4805)" class="st6" width="52.5" height="4.7"></rect> </g> <g> <rect x="1435.9" y="1009.1" transform="matrix(6.123234e-17 -1 1 6.123234e-17 450.7387 2473.6333)" class="st6" width="52.5" height="4.7"></rect> </g> <g> <rect x="1435.9" y="943.3" transform="matrix(6.123234e-17 -1 1 6.123234e-17 516.5971 2407.7749)" class="st6" width="52.5" height="4.7"></rect> </g> <g> <rect x="1443.1" y="1002.4" transform="matrix(6.123234e-17 -1 1 6.123234e-17 471.3896 2480.7744)" class="st6" width="66" height="4.7"></rect> </g> <g> <rect x="1443.1" y="919.6" transform="matrix(6.123234e-17 -1 1 6.123234e-17 554.188 2397.9761)" class="st6" width="66" height="4.7"></rect> </g> </g> </g> </g> <g> <rect x="1388.5" y="281.6" transform="matrix(-1 -1.224647e-16 1.224647e-16 -1 2805.877 1758.9976)" class="st5" width="28.9" height="1195.8"></rect> </g> <g> <rect x="2224.5" y="281.6" transform="matrix(-1 -1.224647e-16 1.224647e-16 -1 4477.8408 1718.5308)" class="st5" width="28.9" height="1155.3"></rect> </g> <g> <rect x="1388.5" y="752" transform="matrix(-1 -1.224647e-16 1.224647e-16 -1 3612.8984 1515.7089)" class="st5" width="836" height="11.6"></rect> </g> <g> <rect x="1388.5" y="1219.1" transform="matrix(-1 -1.224647e-16 1.224647e-16 -1 3664.8047 2449.8936)" class="st5" width="887.9" height="11.6"></rect> </g> </g> <g> <g> <path class="st17" d="M1947.4,1497.3H847.2c-16.5,0-30-13.5-30-30V664.5c0-16.5,13.5-30,30-30h1100.2c16.5,0,30,13.5,30,30v802.8 C1977.4,1483.8,1963.9,1497.3,1947.4,1497.3z"></path> </g> <g> <rect x="843.4" y="664.6" class="st15" width="1107.9" height="823.9"></rect> </g> <g> <rect x="702.6" y="1463.7" class="st17" width="1389.4" height="55.2"></rect> </g> <g> <rect x="843.4" y="664.6" class="st7" width="1107.9" height="799.1"></rect> </g> </g> <g> <polygon class="st6" points="1687.6,805.3 1650.9,751.2 1649.2,748.6 1646.9,748 1463.5,701.1 1377.7,1036.5 1615.4,1097.4 1688.9,810.4 1689.5,808.1 "></polygon> </g> <g> <g> <polygon class="st18" points="1562.7,785.9 1562.4,788.3 1524.1,1082 1280.8,1050.3 1325.6,707 1513.3,731.4 1515.6,731.7 1517.6,734.1 1560.6,783.4 "></polygon> </g> <g> <path class="st3" d="M1562.7,785.9l-0.3,2.4l-53.3-7c-1.3-0.2-2.2-1.3-2-2.6l6.2-47.3l2.3,0.3l2,2.3l-5.6,43l48.6,6.3 L1562.7,785.9z"></path> </g> <g> <path class="st6" d="M1488.7,775.9l-101.5-13.2c-1.3-0.2-2.2-1.3-2-2.6c0.2-1.3,1.3-2.2,2.6-2l101.5,13.2c1.3,0.2,2.2,1.3,2,2.6 C1491.2,775.1,1490,776,1488.7,775.9z"></path> </g> <g> <path class="st6" d="M1537.9,827.3l-205.1-26.7c-1.3-0.2-2.2-1.3-2-2.6c0.2-1.3,1.3-2.2,2.6-2l205.1,26.7c1.3,0.2,2.2,1.3,2,2.6 C1540.3,826.6,1539.1,827.5,1537.9,827.3z"></path> </g> <g> <path class="st6" d="M1535.8,842.8L1330.8,816c-1.3-0.2-2.2-1.3-2-2.6c0.2-1.3,1.3-2.2,2.6-2l205.1,26.7c1.3,0.2,2.2,1.3,2,2.6 S1537.1,842.9,1535.8,842.8z"></path> </g> <g> <path class="st6" d="M1533,864.8l-205.1-26.7c-1.3-0.2-2.2-1.3-2-2.6c0.2-1.3,1.3-2.2,2.6-2l205.1,26.7c1.3,0.2,2.2,1.3,2,2.6 C1535.4,864.1,1534.2,865,1533,864.8z"></path> </g> <g> <path class="st6" d="M1531,880.2l-205.1-26.7c-1.3-0.2-2.2-1.3-2-2.6c0.2-1.3,1.3-2.2,2.6-2l205.1,26.7c1.3,0.2,2.2,1.3,2,2.6 C1533.4,879.5,1532.2,880.4,1531,880.2z"></path> </g> <g> <path class="st6" d="M1528.9,895.7l-205.1-26.7c-1.3-0.2-2.2-1.3-2-2.6c0.2-1.3,1.3-2.2,2.6-2l205.1,26.7c1.3,0.2,2.2,1.3,2,2.6 C1531.4,895,1530.2,895.9,1528.9,895.7z"></path> </g> <g> <path class="st6" d="M1526.9,911.1l-205.1-26.7c-1.3-0.2-2.2-1.3-2-2.6c0.2-1.3,1.3-2.2,2.6-2l205.1,26.7c1.3,0.2,2.2,1.3,2,2.6 C1529.4,910.4,1528.2,911.3,1526.9,911.1z"></path> </g> <g> <path class="st6" d="M1519.3,969.7l-205.1-26.7c-1.3-0.2-2.2-1.3-2-2.6c0.2-1.3,1.3-2.2,2.6-2l205.1,26.7c1.3,0.2,2.2,1.3,2,2.6 C1521.7,969,1520.6,969.9,1519.3,969.7z"></path> </g> <g> <path class="st6" d="M1517.3,985.1l-205.1-26.7c-1.3-0.2-2.2-1.3-2-2.6c0.2-1.3,1.3-2.2,2.6-2l205.1,26.7c1.3,0.2,2.2,1.3,2,2.6 S1518.5,985.3,1517.3,985.1z"></path> </g> <g> <path class="st6" d="M1515.3,1000.6l-205.1-26.7c-1.3-0.2-2.2-1.3-2-2.6c0.2-1.3,1.3-2.2,2.6-2l205.1,26.7c1.3,0.2,2.2,1.3,2,2.6 C1517.7,999.8,1516.5,1000.7,1515.3,1000.6z"></path> </g> <g> <path class="st6" d="M1513.3,1016l-205.1-26.7c-1.3-0.2-2.2-1.3-2-2.6c0.2-1.3,1.3-2.2,2.6-2l205.1,26.7c1.3,0.2,2.2,1.3,2,2.6 S1514.5,1016.2,1513.3,1016z"></path> </g> </g> <g> <g> <path class="st19" d="M1416.2,773.2l-409.3,32.9c-0.8,0.1-1.4,0.8-1.4,1.6l43.1,536c0.1,0.8,0.8,1.4,1.6,1.4l408.7-32.9 c0.8-0.1,1.4-0.8,1.4-1.6l-43.2-536.6C1417.2,773.5,1416.7,773.2,1416.2,773.2z"></path> </g> <g> <rect x="1039.8" y="801.6" transform="matrix(0.9962 -8.714467e-02 8.714467e-02 0.9962 -87.4112 111.4469)" class="st15" width="385.8" height="510.6"></rect> </g> <g> <g> <path class="st5" d="M1280.7,867.8l-218.1,19.1c-0.1,0-0.2-0.1-0.2-0.2l-0.5-5.4c0-0.1,0.1-0.2,0.2-0.2l218.1-19.1 c0.1,0,0.2,0.1,0.2,0.2l0.5,5.4C1280.9,867.7,1280.8,867.8,1280.7,867.8z"></path> </g> <g> <path class="st5" d="M1284.8,914.6l-218.1,19.1c-0.1,0-0.2-0.1-0.2-0.2l-0.5-5.5c0-0.1,0.1-0.2,0.2-0.2l218.1-19.1 c0.1,0,0.2,0.1,0.2,0.2l0.5,5.5C1285,914.5,1284.9,914.6,1284.8,914.6z"></path> </g> <g> <path class="st5" d="M1366,883.9l-301.4,26.4c-0.1,0-0.2-0.1-0.2-0.2l-0.5-5.5c0-0.1,0.1-0.2,0.2-0.2l301.4-26.4 c0.1,0,0.2,0.1,0.2,0.2l0.5,5.4C1366.2,883.8,1366.2,883.9,1366,883.9z"></path> </g> <g> <path class="st5" d="M1235.7,1065l-148.4,13c-0.1,0-0.2-0.1-0.2-0.2l-0.5-5.5c0-0.1,0.1-0.2,0.2-0.2l148.4-13 c0.1,0,0.2,0.1,0.2,0.2l0.5,5.5C1235.8,1064.9,1235.7,1064.9,1235.7,1065z"></path> </g> <g> <path class="st5" d="M1290.3,1036.6l-205.1,17.9c-0.1,0-0.2-0.1-0.2-0.2l-0.5-5.5c0-0.1,0.1-0.2,0.2-0.2l205.1-17.9 c0.1,0,0.2,0.1,0.2,0.2l0.5,5.5C1290.5,1036.5,1290.4,1036.6,1290.3,1036.6z"></path> </g> <g> <path class="st5" d="M1306.7,1085l-218.1,19.1c-0.1,0-0.2-0.1-0.2-0.2l-0.5-5.4c0-0.1,0.1-0.2,0.2-0.2l218.1-19.1 c0.1,0,0.2,0.1,0.2,0.2l0.5,5.4C1306.9,1084.9,1306.8,1085,1306.7,1085z"></path> </g> <g> <path class="st5" d="M1333.1,1106.3l-242.5,21.2c-0.1,0-0.2-0.1-0.2-0.2l-0.5-5.5c0-0.1,0.1-0.2,0.2-0.2l242.5-21.2 c0.1,0,0.2,0.1,0.2,0.2l0.5,5.5C1333.3,1106.2,1333.2,1106.3,1333.1,1106.3z"></path> </g> <g> <path class="st5" d="M1251.6,1154.8l-156.1,13.7c-0.1,0-0.2-0.1-0.2-0.2l-0.5-5.5c0-0.1,0.1-0.2,0.2-0.2l156.1-13.7 c0.1,0,0.2,0.1,0.2,0.2l0.5,5.5C1251.8,1154.7,1251.7,1154.8,1251.6,1154.8z"></path> </g> <g> <path class="st5" d="M1255.7,1201.7l-156.1,13.7c-0.1,0-0.2-0.1-0.2-0.2l-0.5-5.5c0-0.1,0.1-0.2,0.2-0.2l156.1-13.7 c0.1,0,0.2,0.1,0.2,0.2l0.5,5.5C1255.9,1201.6,1255.8,1201.6,1255.7,1201.7z"></path> </g> <g> <path class="st5" d="M1313.3,1173l-215.7,18.9c-0.1,0-0.2-0.1-0.2-0.2l-0.5-5.5c0-0.1,0.1-0.2,0.2-0.2l215.7-18.9 c0.1,0,0.2,0.1,0.2,0.2l0.5,5.5C1313.5,1172.9,1313.4,1173,1313.3,1173z"></path> </g> </g> <g> <path class="st13" d="M1297.2,767l-61.3,4.9c0-0.8,0-1.7-0.1-2.5c-1.2-15.2-14.5-26.5-29.7-25.2c-15.2,1.2-26.5,14.5-25.2,29.7 c0.1,0.8,0.2,1.7,0.3,2.5l-61.3,4.9c-11.7,0.9-20.4,11.2-19.5,22.9l2.3,28.8c0.2,2.7,2.6,4.7,5.3,4.5l209.8-16.9 c2.7-0.2,4.7-2.6,4.5-5.3l-2.3-28.8C1319.1,774.8,1308.8,766.1,1297.2,767z M1209.7,789.1c-9.6,0.8-18.1-6.4-18.9-16.1 c-0.8-9.6,6.4-18.1,16.1-18.9c9.6-0.8,18.1,6.4,18.9,16.1C1226.6,779.9,1219.4,788.4,1209.7,789.1z"></path> </g> </g> <g> <g> <path class="st12" d="M1444.7,1071.2l5.5-13.6c5.9-14.6,20-24.1,35.8-24.1h101.3v64.3v274.5h-419.2v-274.5h237.2 C1422.6,1097.7,1438.2,1087.2,1444.7,1071.2z"></path> </g> </g> <g> <g> <path class="st20" d="M1747.5,1181.1c0,0-27.6,33-50,29.4c-22.5-3.6-59-7.2-59-7.2l18.5-12.2c0,0,32.2-8.5,44-10.8 c11.8-2.4,26.5-19.1,26.5-19.1L1747.5,1181.1z"></path> </g> <g> <path class="st20" d="M1768.2,1529.4c0,0,3.4,33.2-3.4,37c-12.3,6.8-35,13.3-33.1,19.2s56.2,6.1,57.7,0.7 c1.5-5.3-4.6-21.7,1.9-53.6L1768.2,1529.4z"></path> </g> <g> <path class="st21" d="M1788.9,1574.4c0.6,6,1.1,10,0.5,11.9c-1.5,5.3-55.8,5.1-57.7-0.7c-1.4-4.3,10.6-9.3,22-14.1 C1756.4,1576,1762.1,1583,1788.9,1574.4z"></path> </g> <g> <path class="st20" d="M1870.1,1528.4c0,0,9,32.2,2.9,37c-10.9,8.8-32.2,19.1-29.3,24.6c2.9,5.5,56.4-3.6,57-9.1 c0.6-5.5-8.2-20.6-7.3-53.1L1870.1,1528.4z"></path> </g> <g> <path class="st21" d="M1898.1,1569.2c1.6,5.8,2.8,9.7,2.6,11.7c-0.6,5.5-54.1,14.6-57,9.1c-2.1-4,8.9-10.9,19.2-17.7 C1866.4,1576.3,1873.2,1582.3,1898.1,1569.2z"></path> </g> <g> <path class="st22" d="M1774.5,1234.8c0,0-14.8,17.9-21.4,38.8c-6.7,20.9,11,268.8,11,268.8h29.5c0,0,15.6-220.8,15.6-222.7 c0-7.7,58.1,222.7,58.1,222.7h29.4c0,0-15.9-269.8-52.9-307.6l-34.6,2.1L1774.5,1234.8z"></path> </g> <g> <path class="st15" d="M1739.4,1143.5c0.2,1.3,0.1,2.6-0.4,4c-0.6,1.7-1.7,3.1-2.2,4.8c-1,3.7,1.8,7.7,5.4,9.1 c3,1.1,6.4,0.8,9.5-0.2c0.6-0.2,1.2-0.4,1.7-0.7c3.6-1.5,6.8-3.7,10.3-5.3c0.9-0.4,1.8-0.8,2.8-1.1c0.2-0.1,0.4-0.1,0.6-0.2h0 c7-2.4,14.5-3,21.8-4.5c8.6-1.7,17.2-4.6,25.9-4c10.1,0.7,19.2,6,28.6,9.6c9.6,3.7,19.9,5.7,30.2,5.9c4.2,0.1,8.5-0.2,12.5-1.5 c0.3-0.1,0.6-0.2,0.9-0.3c0.8-0.3,1.6-0.6,2.4-1c9.5-5,13.2-17.3,9.4-27.1c-2.2-5.6-6.5-10.1-11.7-13c-4.6-2.6-10.5-3.4-14-7.8 c-1.4-1.7-2.1-3.6-2.5-5.7c-1.1-5.3,0.1-11.5-1.3-16.9c-1.6-6.3-7-11.5-12.9-14.1c-2.5-1.1-5.3-1.7-8-2.6 c-1.3-0.4-2.6-0.9-3.8-1.5c-1.7-0.8-3.3-1.9-4.6-3.4c-4.5-5.3-3-12.6-3.8-18.9c-0.5-3.7-1.7-7.2-3.6-10.4c-2-3.4-4.6-6.4-7.6-8.8 c-1.2-1-2.4-1.9-3.7-2.7c-1.4-0.9-2.9-1.7-4.5-2.4l0,0c-1-0.4-1.9-0.8-2.9-1.2c-4.6-1.7-9.6-2.6-14.5-2.7h0 c-4.7-0.1-9.3,0.6-13.6,2.1c-4.2,1.5-8,3.7-11.1,6.9c-3,3-5.4,6.9-6.9,11.6c-1.9,6.1-1.7,12.9-5.1,18.3 c-3.6,5.9-10.9,9.4-12.9,16c-2.5,8.3,4.6,17.2,2.3,25.6c-1.5,5.5-6.6,9-11.2,12.4c-4.5,3.4-9.2,8-9,13.7 C1732.1,1132,1738.5,1137.6,1739.4,1143.5z"></path> </g> <g> <path class="st12" d="M1816.8,1110c17,0.6,47.3,8.2,56.9,27.3c5.3,10.6,12.8,44.9,12.8,44.9l-25.7,4.5c0,0,0.4,12.4-1.2,19.5 c-3,12.6-15,41.2-21,43.6c-9.4,3.8-18.5-0.5-24.1-1.1c-5.7-0.6-18.3-7.7-33.4-12.1c-15.1-4.4-15.7-15.7-17.6-28.9 c-1.9-13.2-4.4-25.1-4.4-25.1l-5.7,4.4l-28.3-28.3c0,0,33.3-35.8,52.2-41.5C1796.1,1111.6,1816.8,1110,1816.8,1110z"></path> </g> <g> <path class="st23" d="M1771.5,1067.5c0,0-2.8-3.1-4.4-1.4c-4.1,4.3,1.7,8.3,4.9,8.9L1771.5,1067.5z"></path> </g> <g> <path class="st20" d="M1794.2,1021c14.3-1.2,27.5,8.6,30.4,22.7c1,4.6,0.7,9.2-0.4,13.4c-2.4,10.4-4.4,18.8-7.5,25.2 c-3.2,6.5-4,13.8-1.9,20.7l2.1,7c-15.2,10.7-23.6,3.6-23.6,3.6l-2.5-16.4l0,0c-18.1,0.6-20.7-32.6-22.2-42.3l0,0 c-0.1-0.4-0.1-0.7-0.2-1.1C1765.9,1037.6,1777.6,1022.5,1794.2,1021z"></path> </g> <g> <path class="st15" d="M1800.6,1049.5c4,3,7.6,6.5,11.2,9.9c3.8,3.7,7.8,7.6,9.3,12.6c4.1-4.2,6.2-9.8,7.9-15.4 c0.8-2.6,1.5-5.2,1.5-7.9c0-3.8-1.5-7.5-3-11c-1.9-4.6-3.9-9.3-7.7-12.5c-2.5-2.1-5.6-3.4-8.7-4.3c-7.3-2.1-15.2-2.5-22.6-0.4 c-7.3,2.2-13.9,7.1-17.5,13.8c-4.5,8.7-3.6,19.1-2.6,28.9c0.4-4.2,2.5-8,4.6-11.6c1.4-2.4,2.8-4.8,4.8-6.5 c3.5-3,4.7-2.7,10.8-8.3C1791.3,1042.6,1795.6,1045.7,1800.6,1049.5z"></path> </g> <g> <path class="st20" d="M1816.7,1066.3c0.3-1,1-1.8,1.9-2.3c1.8-1.1,5.1-2.5,7.9-0.5c4,2.9-1.6,13.2-9.2,9.7 C1817.3,1073.2,1815,1071.5,1816.7,1066.3z"></path> </g> <g> <path class="st8" d="M1776.2,1067.1c-0.3-1.3,0.5-2.7,1.8-3c1.3-0.3,2.7,0.5,3,1.8c0.3,1.3-0.5,2.7-1.8,3 S1776.5,1068.4,1776.2,1067.1z"></path> </g> <g> <path class="st8" d="M1799.9,1066.1c-0.3-1.3,0.5-2.7,1.8-3c1.3-0.3,2.7,0.5,3,1.8c0.3,1.3-0.5,2.7-1.8,3 S1800.2,1067.5,1799.9,1066.1z"></path> </g> <g> <path class="st24" d="M1784.3,1084.1c0,0,2-1.7,3.3-1.5c1.3,0.2,2.1,1.7,2.1,1.7s0.6-1.6,2.2-1.8c1.5-0.2,6,0.6,6,0.6 s-3.4,7-8.1,6.2c-4.7-0.7-5.4-5-5.4-5L1784.3,1084.1z"></path> </g> <g> <path class="st25" d="M1788.9,1086.3c5.4,0.6,10.2-3.8,10.2-3.8c0.1-0.1,0.1-0.4,0-0.5c-0.1-0.1-0.4-0.1-0.5,0 c-0.3,0.3-7.7,7.1-14.3,1.6c-0.1-0.1-0.4-0.1-0.5,0c-0.1,0.1-0.1,0.4,0,0.5C1785.5,1085.5,1787.2,1086.1,1788.9,1086.3z"></path> </g> <g> <path class="st8" d="M1807.4,1061.4c0.3-0.1,0.6-0.2,0.7-0.5c0.3-0.5,0.1-1.1-0.4-1.4c-0.2-0.1-3.8-2-8.3-0.8 c-0.6,0.1-0.9,0.7-0.8,1.3c0.1,0.6,0.8,0.9,1.3,0.8c3.7-0.9,6.8,0.6,6.8,0.6C1807,1061.4,1807.2,1061.4,1807.4,1061.4z"></path> </g> <g> <path class="st8" d="M1781.7,1060.9c0.3-0.1,0.5-0.3,0.6-0.6c0.2-0.5-0.1-1.1-0.7-1.3c-0.2-0.1-4-1.3-8.3,0.7 c-0.5,0.2-0.8,0.9-0.5,1.4c0.2,0.5,0.9,0.7,1.4,0.5c3.5-1.6,6.8-0.6,6.8-0.6C1781.2,1061,1781.5,1061,1781.7,1060.9z"></path> </g> <g> <path class="st23" d="M1790.2,1077.2c-3,0-4.3-2-4.6-3.3c0-0.2,0-0.4,0.1-0.6c2.1-3.6,1.2-8.2,1.1-8.3c-0.1-0.5,0.2-0.9,0.7-1 c0.5-0.1,0.9,0.2,1,0.7c0,0.2,1.1,5.1-1.1,9.2c0.3,0.7,1.2,2.1,4,1.5c0.5-0.1,0.9,0.2,1,0.7c0.1,0.5-0.2,0.9-0.7,1 C1791.2,1077.2,1790.7,1077.2,1790.2,1077.2z"></path> </g> <g> <path class="st26" d="M1828.3,1191.1c-10.6,0-19.6-6.1-19.8-6.2c-0.1-0.1-0.1-0.2-0.1-0.3c0.1-0.1,0.2-0.1,0.3-0.1 c0.2,0.1,17.2,11.7,32,2.7c0.1-0.1,0.2,0,0.3,0.1c0.1,0.1,0,0.2-0.1,0.3C1836.8,1190.2,1832.4,1191.1,1828.3,1191.1z"></path> </g> <g> <path class="st20" d="M1883,1182.8c0.3,1.5,9.2,51,2.3,62.6c-3,5.1-28.6,14.1-65.8,13.9l2.3-13c0,0,36.2-12.5,37.4-17.1 c2.4-9.9-4.4-41.5-4.4-41.5L1883,1182.8z"></path> </g> <g> <rect x="1612.8" y="1167.4" class="st5" width="132.5" height="20.8"></rect> </g> <g> <g> <path class="st10" d="M1737.2,1170l2.5-6.1c2.7-6.6,9-10.9,16.1-10.9h45.6v28.9v123.5h-188.6V1182h106.7 C1727.3,1182,1734.3,1177.3,1737.2,1170z"></path> </g> </g> <g> <path class="st20" d="M1797.2,1229.7c-2.1,2,4,9.3,4.2,9.5c-0.2,0-10.3,0.1-13.5-0.3c-3.2-0.4-9.1,0.2-9.6,2.5 c-0.5,2.3,14.4,3.3,14.9,3.4c-0.4,0-13.1,0.4-14,2.4c-0.9,2,15.3,3.9,15.8,4c-0.3,0-10-0.2-13.7,0.3c-0.7,0.1-1.2,0.2-1.4,0.4 c-1.1,0.9,0,2.4,5,3.7c1.4,0.4,2.8,0.6,4.2,0.8c3.1,0.5,5.7,0.5,6.1,0.5c-0.3,0-2.1,0.1-4.2,0.3c-2.8,0.2-6.1,0.5-6.8,0.7 c-1.2,0.5-2.4,2,5.1,3.1c6,0.9,17.9,1,26.6-0.8c2.1-0.4,4.1-1,5.7-1.7l0.1-8.1l0.1-4.1c0,0-1.2-1-2.9-2.3 c-3.5-2.7-9.3-7.1-12.3-8.6C1802,1233.2,1799.3,1227.7,1797.2,1229.7z"></path> </g> <g> <path class="st20" d="M1663,1164.6c0,0-4.1,14.3-6.3,14c-2.2-0.2-1.7-11.9-1.8-11.7c-0.1,0.2-2.7,12.3-5.8,12.9 c-3.1,0.6-1.8-12.8-1.8-12.8s-1.6,11.5-3.7,11.8c-2.1,0.3-1.9-10.8-2.7-10.8s-0.3,9.6-2.9,10.1c-2.6,0.5-3.9-13-1.6-14.7 c2.4-1.7,4.7,0.1,4.7,0.1s4.3-2.5,6.7-1.1c0,0,6.8-1.3,7.9,1.4C1655.7,1163.8,1660.7,1160.5,1663,1164.6z"></path> </g> <g> <polygon class="st10" points="1801.4,1239.2 1790.6,1238.7 1790.6,1213.3 1801.4,1213.3 "></polygon> </g> </g> <g> <g> <polygon class="st20" points="910.8,1219.9 885.2,1213.3 901.9,1200.8 916,1197.9 922.9,1206.1 "></polygon> </g> <g> <path class="st20" d="M801,1539.5c0,0,6.3,37.1,6.6,37.6c0.2,0.5-2.3,4.4-2.3,4.4l-10,1.8l-9.1-4.2c0,0-5.3-29.9-6.2-34.6 C778.9,1539.9,801,1539.5,801,1539.5z"></path> </g> <g> <path class="st27" d="M786.1,1579.1c0,0,11.6,4,21.4-2.6c0,0,38.5,14.4,37.3,25.4c0,0,1.6,3.3-15,2.6 c-16.7-0.7-42.6-1.4-43.3-1.8C785.9,1602.2,782.6,1604,786.1,1579.1z"></path> </g> <g> <path class="st20" d="M686.8,1539.5c0,0-9.8,37.1-9.6,37.6c0.2,0.5-2.3,4.4-2.3,4.4l-10,1.8l-9.1-4.2c0,0,5-30.6,4-35.2 C658.8,1539.2,686.8,1539.5,686.8,1539.5z"></path> </g> <g> <path class="st27" d="M655.7,1579.1c0,0,11.6,4,21.4-2.6c0,0,38.5,14.4,37.3,25.4c0,0,1.6,3.3-15,2.6 c-16.7-0.7-42.6-1.4-43.3-1.8C655.5,1602.2,652.2,1604,655.7,1579.1z"></path> </g> <g> <path class="st28" d="M790.7,1307.3l20.1,254.2h-34.5c0,0-36.5-200.9-41.7-201.7c-5.2-0.9-42.2,201.7-42.2,201.7h-39.6 l20.3-260.8L790.7,1307.3z"></path> </g> <g> <path class="st19" d="M712.7,1109.3c0,0,42.8,1.5,60.1,14.6c10.8,8.2,13.2,111.3,13.2,111.3l6.5,76.9c0,0-69.3,23.5-125.7,0 l-6.1-51.5c0,0-22.3-129.3-4.9-137C688.7,1109.3,712.7,1109.3,712.7,1109.3z"></path> </g> <g> <g> <g> <path class="st29" d="M741.2,1059.1c0,0,2.1-3.8,4.1-2.5c5.2,3.3,0.8,8.6-2.3,10L741.2,1059.1z"></path> </g> <g> <path class="st20" d="M741,1045.6L741,1045.6c0-0.4-0.1-0.8-0.1-1.1c-1.5-17-17.1-29.4-34.3-26.7c-14.3,2.3-25,14.8-25,29.2 c0,5.4,1.4,10.3,3.8,14.6c3.4,6.7,6.3,12.4,9.3,17.1c5,7.8,7.2,17,6.5,26.2l-0.4,5.4c19.1,8,26.4,0.1,26.4,0.1l-0.9-13.1 c-0.1-1.7,1.1-3.2,2.8-3.5c0,0,0,0,0,0C751.6,1090.3,742,1055.8,741,1045.6z"></path> </g> <g> <path class="st17" d="M712,1064c-0.1-1.5-1.5-2.6-3-2.5c-1.5,0.1-2.6,1.5-2.5,3c0.1,1.5,1.5,2.6,3,2.5 C711,1066.8,712.1,1065.5,712,1064z"></path> </g> <g> <path class="st17" d="M736,1056.8c-0.1-1.5-1.5-2.6-3-2.5c-1.5,0.1-2.6,1.5-2.5,3c0.1,1.5,1.5,2.6,3,2.5 C735,1059.7,736.1,1058.4,736,1056.8z"></path> </g> <g> <path class="st17" d="M701.7,1060.6c-0.3,0-0.6,0-0.9-0.2c-0.8-0.4-1.1-1.4-0.8-2.2c1.2-2.4,5.1-6.4,11.5-3.8 c0.8,0.3,1.2,1.3,0.9,2.1c-0.3,0.8-1.3,1.2-2.1,0.9c-5.3-2.1-7.4,2.1-7.4,2.2C702.8,1060.2,702.2,1060.5,701.7,1060.6z"></path> </g> <g> <path class="st17" d="M727.1,1053.9c-0.3,0-0.6,0-0.8-0.2c-0.8-0.4-1.1-1.4-0.8-2.2c1.2-2.4,5.1-6.4,11.5-3.8 c0.8,0.3,1.2,1.3,0.9,2.1c-0.3,0.8-1.3,1.2-2.1,0.9c-5.3-2.1-7.4,2.1-7.4,2.2C728.2,1053.5,727.7,1053.9,727.1,1053.9z"></path> </g> <g> <polygon class="st27" points="679.3,1052.2 689.1,1071.5 694.4,1069.9 695.3,1043.8 "></polygon> </g> <g> <path class="st20" d="M695.2,1069.2c-0.6-0.9-1.5-1.6-2.5-1.9c-2.1-0.6-5.8-1.2-8.1,1.5c-3.3,4,4.9,12.9,11.7,7.5 C696.3,1076.3,698.2,1074,695.2,1069.2z"></path> </g> <g> <path class="st29" d="M727,1072.7c-2.5,1.5-5,0.3-5,0.3c-0.2-0.1-0.3-0.4-0.2-0.6c0.1-0.2,0.4-0.3,0.6-0.2 c0.1,0.1,2.9,1.4,5.3-1.3c0.4-0.4,0.6-0.8,0.6-1c0-0.3-0.4-0.7-1-1.3c-1.4-1.2-3.7-3.3-4.8-8.4c-0.1-0.3,0.1-0.5,0.4-0.6 c0.3-0.1,0.5,0.1,0.6,0.4c1.1,4.7,3.1,6.6,4.5,7.8c0.7,0.7,1.3,1.2,1.4,1.9c0,0.5-0.2,1-0.8,1.7 C728,1072,727.5,1072.4,727,1072.7z"></path> </g> <g> <path class="st15" d="M716.4,1078.7c0,0,11.4,0.4,18.2-3.6c0,0-1,8.8-7.4,10.1C720.6,1086.4,716.4,1078.7,716.4,1078.7z"></path> </g> <g> <path class="st27" d="M735.2,1034.6c0,0,4.5,2.6,7.2,20.5c0,0-0.4-20.2-2.8-22.2C737.2,1030.9,735.2,1034.6,735.2,1034.6z"></path> </g> </g> <g> <path class="st27" d="M687,1015c5.9-6.6,16.8-6,23.8-11.5c-2.2,4.5-5.3,8.7-9,12.1c10.4-3,20.8-6,31.3-9.1 c-3.2,3.3-6.7,6.2-10.5,8.8c8.1,0.7,16.3,0.6,24.4-0.2c0.8,1.2,0.3,2.9-0.3,4.3c-3,7.5-6.8,15.8-14.3,18.9 c-2.3,0.9-4.9,1.3-7.4,1.4c-10,0.5-21-1.9-29.2,3.7c-3.8,2.6-8.6,11.7-14,10.4C676.8,1052.7,668.7,1035.6,687,1015z"></path> </g> </g> <g> <path class="st19" d="M758.2,1116.8c26.7,6.1,54.8,60.5,68.1,69.2c13.7,8.9,73.4,12.8,73.4,12.8l-12.9,20.2 c0,0-64.1,7.1-82.8,0.8c-11.5-3.9-30.6-19.4-36.2-27.5C742.7,1156.3,758.2,1116.8,758.2,1116.8z"></path> </g> <g> <g> <rect x="793" y="1067.7" transform="matrix(0.3949 0.9187 -0.9187 0.3949 1631.8613 19.5518)" class="st27" width="16.3" height="361.8"></rect> </g> <g> <polygon class="st21" points="638.5,1329.1 631.1,1311.2 760.7,1255.5 768.1,1273.4 "></polygon> </g> <g class="st30"> <ellipse transform="matrix(0.9995 -3.056225e-02 3.056225e-02 0.9995 -33.5917 34.4286)" class="st6" cx="1109.4" cy="1116.1" rx="154.7" ry="154.7"></ellipse> </g> <g> <g> <path class="st27" d="M959.8,1180.4c35.5,82.5,131.5,120.8,214,85.3c82.5-35.5,120.8-131.5,85.3-214 c-35.5-82.5-131.5-120.8-214-85.3C962.6,1001.9,924.3,1097.9,959.8,1180.4z M1050,977.7c76.4-32.9,165,2.5,197.8,78.9 c32.9,76.4-2.5,165-78.9,197.8c-76.4,32.9-165-2.5-197.8-78.9C938.2,1099.2,973.6,1010.6,1050,977.7z"></path> </g> </g> </g> <g> <path class="st20" d="M910.8,1219.9c0,0-7.8-16.4-5.7-17.8c2.2-1.4,11.1,9.9,11.1,9.7c-0.1-0.2-7.5-13.6-5.3-16.4 c2.2-2.8,12,10.6,12,10.6s-7.9-12-6.2-13.9c1.6-1.9,10.4,8.8,11.2,8.2c0.8-0.6-7.5-9.2-5.6-11.6c1.9-2.4,14,9.3,13.3,12.7 c-0.7,3.4-4.3,3.4-4.3,3.4s-1.8,5.6-5,6c0,0-5.1,6.2-8.2,4.5C918,1215.4,916.2,1222.1,910.8,1219.9z"></path> </g> <g> <path class="st20" d="M686.3,1267.7c0,0,15.8,1.9,21.4,3c5.6,1.1,11.8-1.9,12.3,1.3c0.5,3.3-10.2,5.5-10.2,5.5s9.1,7.2,12.2,9 s5.8,4.7,3.9,6.5c-3.7,3.5-12.7-4.9-12.7-4.9s12.8,5.9,9.6,9.2c-2.7,2.8-15.5-4.8-15.5-4.8s12,3.7,12.2,6.6 c0.1,1.6-0.1,2.4-5,1.2c-5.5-1.4-5.3-1.3-5.3-1.3s3,1.2,3.8,3.7c0.6,1.8-0.6,3.8-7.2,1.2c-7.9-3.2-22.1-14-27-22.7L686.3,1267.7z "></path> </g> <g> <path class="st19" d="M657.3,1123.1c-33.1,15.8-58.8,92.9-50.1,115.4c10.1,26.4,69.1,47.2,69.1,47.2l14.1-25.1 c0,0-43.6-26-43.7-30.9c-0.2-7.2,28.5-43.5,28.5-43.5L657.3,1123.1z"></path> </g> <g> <g> <path class="st17" d="M676.3,1286.1c0.1,0,0.3-0.1,0.3-0.2l14.1-25.1c0.1-0.2,0-0.4-0.1-0.5l-33-21.2c-0.2-0.1-0.4-0.1-0.5,0.1 s-0.1,0.4,0.1,0.5l32.7,21l-13.7,24.5l-12.9-5.2c-0.2-0.1-0.4,0-0.5,0.2c-0.1,0.2,0,0.4,0.2,0.5l13.2,5.3 C676.2,1286,676.2,1286.1,676.3,1286.1z"></path> </g> </g> <g> <g> <path class="st17" d="M785,1209.1C785,1209.1,785,1209,785,1209.1c0.3,0,0.4-0.2,0.4-0.4l-2.8-28.1c0-0.2-0.2-0.4-0.4-0.4 c-0.2,0-0.4,0.2-0.4,0.4l2.8,28.1C784.7,1208.9,784.8,1209.1,785,1209.1z"></path> </g> </g> </g> <g> <g> <rect x="2136.4" y="806.1" transform="matrix(-0.9839 0.1789 -0.1789 -0.9839 4538.9639 1615.9222)" class="st6" width="120.3" height="413.2"></rect> </g> <g> <path class="st14" d="M2245.4,1123.2c-2.8-15.3-17.5-25.5-32.8-22.7c-15.3,2.8-25.5,17.5-22.7,32.8c2.8,15.3,17.5,25.5,32.8,22.7 C2238,1153.2,2248.2,1138.5,2245.4,1123.2z"></path> </g> <g> <path class="st15" d="M2217.6,1159.6c-14.8,0-27.9-10.6-30.7-25.6c-1.5-8.2,0.3-16.5,5-23.3c4.7-6.9,11.9-11.4,20.1-12.9 c16.9-3.1,33.2,8.2,36.3,25.1l0,0c3.1,16.9-8.2,33.2-25.1,36.3C2221.4,1159.4,2219.5,1159.6,2217.6,1159.6z M2217.7,1103.2 c-1.5,0-3,0.1-4.5,0.4c-6.6,1.2-12.4,4.9-16.2,10.5c-3.8,5.5-5.3,12.2-4.1,18.9c2.5,13.7,15.6,22.8,29.3,20.3 c13.7-2.5,22.8-15.6,20.3-29.3l0,0C2240.3,1111.7,2229.6,1103.2,2217.7,1103.2z"></path> </g> <g class="st16"> <rect x="2148.5" y="826.1" transform="matrix(-0.9839 0.1789 -0.1789 -0.9839 4500.9297 1478.5668)" class="st3" width="70.5" height="232.2"></rect> </g> <g> <rect x="2138.4" y="836.3" transform="matrix(-0.9839 0.1789 -0.1789 -0.9839 4444.8325 1281.0614)" class="st12" width="52.5" height="9.3"></rect> </g> <g> <g> <rect x="2180.2" y="1001.5" transform="matrix(-0.179 -0.9839 0.9839 -0.179 1613.7327 3354.3586)" class="st6" width="52.5" height="4.7"></rect> </g> <g> <rect x="2168.5" y="936.7" transform="matrix(-0.1789 -0.9839 0.9839 -0.1789 1663.5759 3266.3708)" class="st6" width="52.5" height="4.7"></rect> </g> <g> <rect x="2154" y="1006.3" transform="matrix(-0.1789 -0.9839 0.9839 -0.1789 1578.0032 3334.1292)" class="st6" width="52.5" height="4.7"></rect> </g> <g> <rect x="2142.2" y="941.5" transform="matrix(-0.1789 -0.9839 0.9839 -0.1789 1627.8673 3246.147)" class="st6" width="52.5" height="4.7"></rect> </g> <g> <rect x="2159.7" y="997.2" transform="matrix(-0.179 -0.9839 0.9839 -0.179 1601.7343 3335.6377)" class="st6" width="66" height="4.7"></rect> </g> <g> <rect x="2144.9" y="915.7" transform="matrix(-0.179 -0.9839 0.9839 -0.179 1664.4191 3225.0234)" class="st6" width="66" height="4.7"></rect> </g> </g> </g> <g> <g> <g> <path class="st20" d="M2270.9,1460.3c0,0,4.6,32.2,4.4,32.6c-0.2,0.4,1.7,3.6,1.7,3.6l8,1.8l7.5-3.1c0,0-4.7-30.5-3.8-34.2 C2289.7,1457.4,2270.9,1460.3,2270.9,1460.3z"></path> </g> <g> <path class="st8" d="M2292.5,1495.3c0,0-9.4,2.9-17.2-2.9c0,0-31.5,10.3-30.9,19.2c0,0-1.4,2.6,12,2.6c13.5,0,34.3,0.3,34.9,0 C2292,1513.9,2294.5,1515.4,2292.5,1495.3z"></path> </g> </g> <g> <g> <path class="st20" d="M2381.9,1458.5c0,0,9.5,31.1,9.4,31.5c-0.2,0.4,2.3,3.3,2.3,3.3l8.2,0.5l6.9-4.2c0,0-9.4-29.4-9.1-33.2 C2400,1452.6,2381.9,1458.5,2381.9,1458.5z"></path> </g> <g> <path class="st8" d="M2408.7,1489.6c0,0-8.9,4.3-17.4-0.1c0,0-29.5,15.1-27.5,23.8c0,0-1,2.8,12.3,0.7c13.3-2.1,34-5.1,34.5-5.5 C2411.1,1508.1,2413.8,1509.2,2408.7,1489.6z"></path> </g> </g> <g> <path class="st31" d="M2368.6,1203.7l-117.2-4c0,0-13.8,84.7,10.5,285.2h36.4c0,0,7.7-206.5,14.3-218.4 c6.6-11.9,29.7,129.2,66.1,214l33.1-9.9c0,0-29.7-148.7-34.2-187.3C2373.2,1244.7,2368.6,1203.7,2368.6,1203.7z"></path> </g> <g> <path class="st20" d="M2137.5,1005.3c0,0-6.2-3.6-7.1-3.9c-0.9-0.2-2.1,0.1,1.7,4.1c3.8,4.1,14.7,9.3,21.1,11l8.2-8 c0,0-4.6-6.9-6.2-10.3c-1.6-3.4-4.9-8.3-6.3-6.8c-1.3,1.4,2.2,7.3,2.2,7.3s-4.2-2.6-5.8-4.3c-1.6-1.7-8.8-8.6-10.5-7 c-1.3,1.2,7.2,9.9,7.2,9.9s-10.9-10.1-12-8.2c-1.2,2,10.2,12.7,10.2,12.7s-6.5-4.8-7.8-7.3c-0.2-0.4-2.3,2.8,0,5.3L2137.5,1005.3 z"></path> </g> <g> <path class="st8" d="M2320,972.5c0.3,0,0.5-0.1,0.8-0.2c0.7-0.4,0.9-1.2,0.5-1.9c-1.4-2.1-5.4-5.3-11.2-2.7 c-0.7,0.3-1,1.2-0.6,1.9c0.4,0.7,1.3,1,2.1,0.7c4.7-2.1,7.1,1.4,7.2,1.5C2319,972.2,2319.5,972.5,2320,972.5z"></path> </g> <g> <path class="st20" d="M2311.4,964.1L2311.4,964.1c0.1-0.3,0.1-0.6,0.2-1c3.3-14.4,19.1-22.6,34.8-17.7 c13.1,4.1,21.7,16.4,20.2,28.8c-0.6,4.6-2.4,8.7-5.1,12c-3.9,5.2-7.2,9.7-10.5,13.3c-5.5,5.9-8.5,13.5-8.8,21.5l-0.3,7.8 c-18.6,4-25.6-5.6-25.6-5.6l3.3-12.5c0.3-1.5-0.7-2.9-2.2-3.4c0,0,0,0,0,0C2293.8,999.9,2310.1,982.9,2311.4,964.1z"></path> </g> <g> <path class="st15" d="M2354.4,960.7l11.6,16.7c-0.9,3.3-2.4,6.3-4.5,8.8c-3.9,5.2-7.2,9.7-10.5,13.3c-2.3,2.5-4.1,5.2-5.5,8.2 c0,0,0,0,0,0c-4.1,0.5-23.8-9.2-24.1-13c-0.3-3.8,6.7-15.8-0.4-17.1c-6.8-1.2-4.2-22.4-4.2-22.4l18.2-1.1L2354.4,960.7z"></path> </g> <g> <path class="st32" d="M2323.3,980.5c-0.1-0.9-0.5-1.8-1.2-2.5c-1.5-1.4-4.3-3.5-7.3-2.6c-4.5,1.4-1.7,11.8,6.3,10.9 C2321.1,986.3,2323.6,985.5,2323.3,980.5z"></path> </g> <g> <path class="st15" d="M2371.6,963.7c-0.4-3-1.1-5.9-1.8-8.9c-0.4-1.5-0.7-3-1.1-4.4c-0.2-1-0.2-3.1-1.2-3.9 c-1.3-0.9-2.8,2.2-2.9,3c-0.3,1.8,0.4,3.7,0.4,5.6c0.2-5-5.4-9.4-9.4-12.1c-4.4-2.9-9.5-5.2-14.4-7.3c-1.1-0.5-2.3-1-3.5-1 c-4.3-0.2-2.7,3.1-1.7,5.3c0,0.1-3.4-0.7-3.7-0.8c-4.7-1.2-9.8-0.9-14.1,0.8c-1.5,0.6-3,2-1.6,3.6c0.8,1,2.3,1.6,3.5,1.6 c-3-0.2-6.1,0-8.8,1.1c-1.7,0.7-4.2,2-4.5,3.9c-0.3,1.9,1.7,3.4,3.4,4.2c4.3,2.1,9.3,2.3,13.8,3.7c5,1.6,9.8,3.8,14.2,6.6 c3.6,2.3,7,5,10.6,7.4c3.1,2,6.3,3.6,9.6,5.2c2.2,1,5.9,3.8,7.8,2C2370.4,975.7,2372.2,969.2,2371.6,963.7z"></path> </g> <g> <path class="st12" d="M2355.7,1035.9c-11.1-8.2-21-10.9-34.8-12.3c-10.9-1.1-24.6-1.9-34.7-0.2c-13.8,2.3-50.6,13.2-65.4,12.9 c-18.1-0.4-61.6-30.8-61.6-30.8l-7.2,12.9c0,0,19.2,46,50.8,52.5c31.6,6.5,57.5,6.8,57.5,6.8l-12.9,133.6 c0,0,60.3,24.1,124.4-3.8c0,0-0.6-57.1-0.1-113.9C2371.9,1067.7,2369.3,1046,2355.7,1035.9z"></path> </g> </g> <g> <rect x="1405.2" y="1300.9" class="st33" width="149.3" height="44.2"></rect> </g> <g> <g> <rect x="1419.8" y="1310.7" class="st10" width="47.6" height="2.7"></rect> </g> <g> <rect x="1474.9" y="1310.7" class="st10" width="47.6" height="2.7"></rect> </g> <g> <rect x="1419.8" y="1320.6" class="st10" width="47.6" height="2.7"></rect> </g> <g> <rect x="1419.8" y="1330.6" class="st10" width="47.6" height="2.7"></rect> </g> <g> <rect x="1474.9" y="1320.6" class="st10" width="47.6" height="2.7"></rect> </g> </g> <g> <rect x="1628.5" y="1271.8" class="st33" width="67.9" height="20.1"></rect> </g> <g> <g> <rect x="1635.1" y="1276.2" class="st10" width="21.6" height="1.2"></rect> </g> <g> <rect x="1660.2" y="1276.2" class="st10" width="21.6" height="1.2"></rect> </g> <g> <rect x="1635.1" y="1280.7" class="st10" width="21.6" height="1.2"></rect> </g> <g> <rect x="1635.1" y="1285.3" class="st10" width="21.6" height="1.2"></rect> </g> <g> <rect x="1660.2" y="1280.7" class="st10" width="21.6" height="1.2"></rect> </g> </g> </g> </svg> 