<?xml version="1.0" encoding="UTF-8"?> <!-- Generator: Adobe Illustrator 24.3.0, SVG Export Plug-In . SVG Version: 6.00 Build 0) --> <svg xmlns="http://www.w3.org/2000/svg" xmlns:xlink="http://www.w3.org/1999/xlink" version="1.1" id="_x3C_Layer_x3E_" x="0px" y="0px" viewBox="0 0 2760 1840" style="enable-background:new 0 0 2760 1840;" xml:space="preserve"> <style type="text/css"> .st0{display:none;fill:#FFFFFF;} .st1{display:none;fill:#DAE6FF;} .st2{display:none;fill:#EEF4FF;} .st3{fill:#D3E5FF;} .st4{fill:#FFFFFF;} .st5{fill:#B8D0FC;} .st6{fill:#B5C9F2;} .st7{fill:#FFA089;} .st8{fill:#18142D;} .st9{fill:#2F61C7;} .st10{fill:#A3CAFF;} .st11{fill:#080435;} .st12{fill:#F28372;} .st13{fill:#060423;} .st14{fill:#FF6760;} .st15{fill:#89B4FD;} .st16{fill:#100259;} .st17{fill:#F5816E;} .st18{fill:#FA5D63;} .st19{fill:#2C2586;} .st20{fill:#F07763;} .st21{fill:#6D9BEF;} .st22{fill:#F58272;} .st23{fill:#F2806D;} </style> <rect class="st0" width="2760" height="1840"></rect> <g> <path class="st1" d="M2354.6,1540.9c-67.7,8.1-2055.9-24-2055.9-24c-178.7-84.2-186.7-335.3-114-466.2 C257.3,920,406.4,905.6,398.5,630.8c-13.5-468.3,477.7-251.4,668.6-353c21-11.1,148.8-98.5,281.5-127.6 c323.8-71,373.6,252.2,772.5,236.2c633.1-25.1,277.6,481.8,414.1,664.3C2687,1253.6,2550.4,1517.5,2354.6,1540.9z"></path> <g> <path class="st2" d="M2156.5,385.5c-11.4,0.1-23.2,0.4-35.4,0.9c-398.9,16-448.7-307.2-772.5-236.2 c-132.7,29.1-260.6,116.5-281.5,127.6c-116.9,62.2-346.6,4.9-503.9,58.9V1516h1593.3V385.5z"></path> <g> <polygon class="st3" points="2008.7,518.5 2008.7,426.4 1864.9,426.4 1864.9,592.6 1799.3,592.6 1799.3,426.4 1655.4,476.8 1655.4,518.5 1513.7,518.5 1513.7,490.7 1312.8,490.7 1312.8,592.6 1235.4,592.6 1235.4,518.5 1130.4,518.5 1130.4,426.4 986.6,426.4 986.6,592.6 921,592.6 921,426.4 777.1,476.8 777.1,518.5 630.2,518.5 630.2,1487.5 2153.9,1468.8 2153.9,518.5 "></polygon> <rect x="1345.9" y="452.4" class="st3" width="134.7" height="89.3"></rect> <rect x="1377.9" y="390.1" class="st3" width="70.8" height="79.3"></rect> <rect x="1407.1" y="356.7" class="st3" width="12.4" height="48.3"></rect> <rect x="1295.8" y="631.4" class="st4" width="20" height="38.2"></rect> <rect x="855.1" y="480.2" class="st4" width="20" height="38.2"></rect> <rect x="774" y="608.1" class="st4" width="20" height="38.2"></rect> <rect x="1403.3" y="405" class="st4" width="20" height="38.2"></rect> <rect x="1417.2" y="582.4" class="st4" width="20" height="38.2"></rect> <rect x="1079.5" y="518.5" class="st4" width="20" height="38.2"></rect> <rect x="1733.4" y="480.2" class="st4" width="20" height="38.2"></rect> <rect x="1564.5" y="589.3" class="st4" width="20" height="38.2"></rect> <rect x="1957.8" y="518.5" class="st4" width="20" height="38.2"></rect> </g> <path class="st5" d="M2204.2,1516V386.3c-25.6-1.1-53.2-1.1-83.1,0.1V1516H2204.2z"></path> <path class="st5" d="M646.3,318c-29.1,3.9-57.1,9.8-83.1,18.7V1516h83.1V318z"></path> </g> <path class="st6" d="M2643.6,1487.5c0,52.5-549.2,94.6-1221.6,94.6c-670.9,0-1221.6-42.1-1221.6-94.6 c0-62.6,675.6-94.7,1221.6-94.7C2094.8,1392.9,2643.6,1435.1,2643.6,1487.5z"></path> <g> <path class="st7" d="M1128.3,1425.5c0,0,1.3,37.6,1.6,38.1c0.3,0.5-2.6,5.4-2.6,5.4l-12.2,2.7l-11.4-4.4c0,0-0.8-34.9-2.2-40.4 C1100.1,1421.3,1128.3,1425.5,1128.3,1425.5z"></path> <path class="st8" d="M1103.7,1467.2c0,0,14.4,4.1,26.1-4.3c0,0,47.9,14.8,47.1,27.9c0,0,2.2,3.8-18.2,3.9 c-20.4,0.1-52.2,0.7-53,0.3C1104.8,1494.4,1100.9,1496.7,1103.7,1467.2z"></path> <path class="st7" d="M960.6,1425.5c0,0-1.3,37.6-1.6,38.1c-0.3,0.5,2.6,5.4,2.6,5.4l12.2,2.7l11.4-4.4c0,0,0.8-34.9,2.2-40.4 C988.8,1421.3,960.6,1425.5,960.6,1425.5z"></path> <path class="st8" d="M985.1,1467.2c0,0-14.4,4.1-26.1-4.3c0,0-47.9,14.8-47.1,27.9c0,0-2.2,3.8,18.2,3.9c20.4,0.1,52.2,0.7,53,0.3 C984.1,1494.4,988,1496.7,985.1,1467.2z"></path> <path class="st9" d="M987.4,1021.2c0,0-27.1,87.8-37.8,414.6l47.9,9.9c0,0,56.1-287.4,60.2-291c4.1-3.6,34.1,291,34.1,291h51.9 l2.7-398.7L987.4,1021.2z"></path> <path class="st7" d="M1013.7,648c0,0,9-15.1,11-21.2c2-6.1,8.6-10.7,5.6-12.9c-3.1-2.2-11.4,7.1-11.4,7.1s-2.3-12.9-2.4-17 c-0.1-4.1-2.1-11.3-5.2-11.5c-3.1-0.2-1.3,19.4-1.3,19.4s-3.2-16.3-6-17.1c-2.8-0.8-1.9,20.6-1.9,20.6s-2.5-17.6-4-18.8 c-1.4-1.2-3.1,0.5-3.8,6.9c-0.7,6.4,0.4,13.1,0.4,13.1s-2.7-12.2-3.6-13.6c-0.9-1.4-3.1-2.6-3,7c0,9.6,3.7,30.4,9.8,40.1 L1013.7,648z"></path> <path class="st10" d="M1084.3,810l48.9,27.6l6.7,32.3l-36.3,193.7c0,0-9.3,5.3-47.7,3.2c-23.2-1.3-42.5-11.8-42.5-11.8l37.9-199.9 L1084.3,810z"></path> <path class="st11" d="M1084.3,810c0,0-53.9,159.4-60.7,279.9l-61.4-4.4c0,0,32.7-132.8,32.7-160.1c0-27.2-19.1-158.6-19.1-189.5 c0-31,16.4-95.3,16.4-95.3l31,7.2C1023.2,647.8,1002.6,763.9,1084.3,810z"></path> <path class="st12" d="M1093.7,754.6c0,0-1.4-5.3-4.3-4.3c-7.5,2.4-3.7,10.2-0.2,12.8L1093.7,754.6z"></path> <path class="st7" d="M1098.1,738.4L1098.1,738.4c0.2-0.4,0.3-0.9,0.5-1.3c7.3-20.1,30.6-30.3,51.2-21.8 c17.2,7,26.7,25.4,22.2,42.9c-1.7,6.5-5,12.1-9.3,16.5c-6.3,7-11.8,13-17,17.8c-8.6,7.9-14.3,18.3-16.3,29.6l-1.6,8.9 c-26.4,3.9-32.7-10.1-32.7-10.1l5.2-15.6c0.7-2-0.4-4.2-2.4-5c0,0,0,0,0,0C1070.9,789.2,1093.8,750.4,1098.1,738.4z"></path> <path class="st13" d="M1128.7,769.3c0.6-1.8,2.7-2.7,4.5-2.1c1.9,0.6,2.8,2.6,2.2,4.4c-0.6,1.8-2.7,2.7-4.5,2.1 C1129.1,773.1,1128.1,771.1,1128.7,769.3z"></path> <path class="st13" d="M1100.9,753.4c0.6-1.8,2.7-2.7,4.5-2.1c1.9,0.6,2.8,2.6,2.2,4.4c-0.6,1.8-2.7,2.7-4.5,2.1 C1101.2,757.2,1100.3,755.2,1100.9,753.4z"></path> <path class="st13" d="M1142.6,768.3c0.3,0.1,0.7,0.1,1.1,0.1c1.1-0.2,1.9-1.3,1.6-2.4c-0.7-3.3-4.4-9.2-13.2-8.1 c-1.1,0.1-2,1.2-1.8,2.3c0.1,1.1,1.2,1.9,2.3,1.7c7.3-0.9,8.6,4.7,8.6,4.9C1141.4,767.5,1142,768.1,1142.6,768.3z"></path> <path class="st13" d="M1112.9,752.6c0.3,0.1,0.7,0.1,1.1,0.1c1.1-0.2,1.9-1.3,1.6-2.4c-0.7-3.3-4.4-9.2-13.2-8.1 c-1.1,0.1-2,1.2-1.8,2.3c0.1,1.1,1.2,1.9,2.3,1.7c7.3-0.9,8.6,4.7,8.6,4.9C1111.7,751.8,1112.2,752.3,1112.9,752.6z"></path> <polygon class="st11" points="1173.3,765 1155,785.3 1148.8,781.8 1155.9,750 "></polygon> <path class="st7" d="M1148.1,780.7c1-0.9,2.3-1.5,3.7-1.5c2.9-0.1,7.6,0.3,9.6,4.2c2.9,5.8-10.2,14.2-17,5.5 C1144.5,788.9,1142.8,785.7,1148.1,780.7z"></path> <path class="st12" d="M1107.2,775.3c2.7,2.6,6.2,1.9,6.2,1.9c0.3-0.1,0.5-0.4,0.5-0.7c-0.1-0.3-0.4-0.5-0.7-0.5 c-0.2,0-4,0.8-6.2-3.1c-0.4-0.6-0.5-1.1-0.4-1.4c0.1-0.4,0.8-0.7,1.7-1.2c2.1-1.1,5.6-2.9,8.6-8.6c0.2-0.3,0-0.7-0.3-0.8 c-0.3-0.1-0.7,0-0.8,0.3c-2.8,5.4-6,7-8.1,8.1c-1.1,0.6-2,1-2.3,1.9c-0.2,0.6,0,1.3,0.5,2.3 C1106.2,774.2,1106.7,774.8,1107.2,775.3z"></path> <path class="st4" d="M1118.6,785.8c0,0-14.3-3-21.6-9.9c0,0-1.5,10.9,6.2,14.4C1110.8,793.9,1118.6,785.8,1118.6,785.8z"></path> <path class="st11" d="M1108.8,726.8c0,0-6.5,1.8-15.4,22.5c0,0,6.8-24.2,10.4-25.9C1107.5,721.7,1108.8,726.8,1108.8,726.8z"></path> <path class="st11" d="M1175.3,717.8c-5.3-9.8-19.1-12.4-26.2-21.1c1.4,6.2,3.9,12.1,7.5,17.4c-12.1-6.8-24.2-13.6-36.3-20.4 c3,4.9,6.5,9.5,10.4,13.8c-10.4-1.6-20.6-4.1-30.5-7.6c-1.4,1.3-1.2,3.4-1,5.2c1.4,10,3.6,21.2,12,27.1c2.6,1.9,5.7,3,8.8,4 c12.3,3.7,26.9,4,35.4,13.3c4,4.3,7.1,16.7,14.3,16.8C1176.3,766.4,1191.8,748.1,1175.3,717.8z"></path> <polygon class="st14" points="1095.2,832 1095.2,845.1 1102.2,848.3 1112.5,841.7 1106.1,832 "></polygon> <polygon class="st15" points="1130.1,835.8 1128.6,826.3 1106.7,829.8 1097.6,813.6 1092.8,814.8 1090.4,833.6 1105.1,833.2 1112.5,844.6 "></polygon> <polygon class="st14" points="1095.2,845.1 1042.2,997.7 1054.9,1039.2 1088.1,1008.4 1102.7,846.1 "></polygon> <path class="st11" d="M1240.7,1174.8h-11.3v-19.6h-39v19.6h-11.3V1154c0-5.4,4.2-9.8,9.3-9.8h43.1c5.1,0,9.3,4.4,9.3,9.8V1174.8z"></path> <path class="st16" d="M1301.6,1169.1h-177.4c-0.8,0-1.5,0.7-1.5,1.5v103.6c0,0.8,0.7,1.5,1.5,1.5h177.4c0.8,0,1.5-0.7,1.5-1.5 v-103.6C1303.1,1169.8,1302.4,1169.1,1301.6,1169.1z"></path> <path class="st11" d="M1218,1226.9c-0.1,0-0.2,0-0.3,0l-94.8-26.9c-0.5-0.2-0.8-0.7-0.7-1.1c0.2-0.5,0.7-0.7,1.3-0.6l94.5,26.8 l84-27c0.5-0.2,1.1,0.1,1.3,0.6c0.2,0.5-0.1,1-0.6,1.2l-84.4,27.1C1218.2,1226.9,1218.1,1226.9,1218,1226.9z"></path> <rect x="1212.8" y="1216.7" class="st4" width="10" height="17.6"></rect> <path class="st7" d="M1224.1,1155.6c-1.1-1.4-2.7-10.1-2.7-10.2c0,0.1,0.1,0.8,0.1,6.9c0,1.1-0.1,2.1-0.3,2.9c-0.9,4-4,3.2-5,1.4 c-0.2-0.3-0.4-0.8-0.6-1.4c-1-2.7-2.2-7.4-2.2-7.4s0.2,4-0.3,7.4c-0.3,2.2-0.9,4.1-2.2,4.5c-2.3,0.7-4-2.2-4.9-4.5 c-0.6-1.4-0.9-2.6-0.9-2.6s0.2,1.2,0.2,2.6c0,2.2-0.3,5.1-2.4,5.2c-2.6,0.1-4.5-2.2-5.5-5.2c-0.3-1-0.6-2-0.7-3.1 c-0.5-3.4-1.7-6.6-2.2-7.8c-0.2-0.4-0.2-0.6-0.2-0.6s-0.2,0.2-0.4,0.6h-5.7c-1.5,0-2.8,0.4-4,1c1.2-2.1,2.4-4.6,3-7.2 c1.4-7,9.7-28.8,9.7-28.8h16.6c6.8,8.3,11.9,24.1,14.4,35c0.5,2,1,5.5,1.3,7.1C1230.3,1157.2,1225.2,1157,1224.1,1155.6z"></path> <path class="st11" d="M1133.2,837.5c0,0-36.4,150.7-38.2,177.7c-1.8,27-10.7,81.6-10.7,81.6l64.4,3.6L1155,994 c0,0,20,40.6,24.6,58c4.5,17.5,12.7,65.8,12.7,65.8h36.4c0,0,5.5-108.1-13.6-164.3C1195.9,897.3,1188.9,869.3,1133.2,837.5z"></path> </g> <g> <path class="st7" d="M2045.5,739.9c0,0,9.6-16,11.7-22.5c2.1-6.5,9.2-11.3,6-13.7c-3.3-2.4-12.2,7.5-12.2,7.5s-2.4-13.7-2.4-18 c-0.1-4.3-2.2-12-5.5-12.2c-3.3-0.2-1.5,20.5-1.5,20.5s-3.3-17.3-6.3-18.1c-3-0.8-2.1,21.8-2.1,21.8s-2.6-18.6-4.1-19.9 c-1.5-1.3-3.3,0.5-4,7.4c-0.7,6.8,0.3,14,0.3,14s-2.8-13-3.7-14.4s-3.2-2.8-3.2,7.4c0,10.2,3.7,32.3,10.2,42.6L2045.5,739.9z"></path> <path class="st15" d="M2150.3,878.6c-3.5-1-78.3-14.1-100.4-140.4l-27,4c0,0-1.1,132.7,63,185.5L2150.3,878.6z"></path> <g> <path class="st7" d="M2344.3,1240.8c0,0,50.1-17.3,57.4-14.2c4.2,1.8,32.9,56.8,25.6,61.2c-7.3,4.5-35.1-35.3-51-33.2 c-15.9,2-29.1,8.6-29.1,8.6L2344.3,1240.8z"></path> <path class="st11" d="M2381,1229.5c26.8,23.8,25.3,35.4,21.7,40.5c10.8,9.8,20.7,20.2,24.6,17.8c7.3-4.5-21.3-59.5-25.6-61.2 C2399,1225.5,2390.6,1227.1,2381,1229.5z"></path> </g> <g> <path class="st7" d="M2162,1429.1c0,0,23.8,47.7,21.2,55.3c-1.4,4.4-57.2,39-62.7,32.2c-5.6-6.8,34-38.7,30.1-54.2 c-3.9-15.5-12.3-27.9-12.3-27.9L2162,1429.1z"></path> <path class="st11" d="M2178,1464.2c-22.5,29.2-35.2,29.1-40.9,26c-9.3,11.8-19.4,22.7-16.4,26.4c5.6,6.8,61.3-27.8,62.7-32.2 C2184.2,1481.6,2181.6,1473.4,2178,1464.2z"></path> </g> <path class="st11" d="M2187.2,1049.5c0,0,20.1,39.5,26.9,62.9c6.8,23.4,13.6,124.5,21.3,133.8c7.8,9.4,117.3-10.3,117.3-10.3 l8.7,25.3c0,0-113.4,62.7-149.2,51.5c-35.9-11.2-69.8-118.8-69.8-118.8s-14.9,66.2-11,94.3c3.9,28.1,38.2,147.5,38.2,147.5 l-32.1,11.2c0,0-61.5-87.1-71.7-164.2c-12.3-92.9,35.7-233.3,35.7-233.3H2187.2z"></path> <g> <path class="st11" d="M2194.1,850.4c0,0,48.9-11.6,42.2-66.6c0,0-28.7-39.2-61.2-26.6c-32.6,12.7-30.9,43.3-30.6,47.3 C2144.6,808.5,2194.1,850.4,2194.1,850.4z"></path> <path class="st7" d="M2194.3,762c19.2,4.1,32.5,21.7,30.5,40.6c-0.6,6.2-2.8,11.9-6,16.8c-7.4,12.2-13.4,22.1-20.1,28.9 c-6.8,6.9-10.8,16-10.9,25.5l-0.1,9.6c-24.2,7.6-32.4-4.7-32.4-4.7l3.4-21.8l0,0c-23.9-6.4-13.9-49.3-11.9-62.2l0,0 c0.1-0.5,0.1-1,0.2-1.5C2150.5,771.7,2172,757.2,2194.3,762z"></path> <path class="st11" d="M2152,813.1c0.1-1.8,1.7-3.2,3.6-3.1c1.9,0.1,3.3,1.7,3.2,3.5c-0.1,1.8-1.7,3.2-3.6,3.1 C2153.4,816.5,2151.9,814.9,2152,813.1z"></path> <path class="st11" d="M2183.4,821.2c0.1-1.8,1.7-3.2,3.6-3.1c1.9,0.1,3.3,1.7,3.2,3.5c-0.1,1.8-1.7,3.2-3.6,3.1 C2184.8,824.6,2183.3,823,2183.4,821.2z"></path> <path class="st11" d="M2194.8,813.3c0.4,0.1,0.8,0,1.2-0.2c0.6-0.5,0.8-1.3,0.3-1.9c-0.1-0.2-3.6-4.5-9.8-5.6 c-0.8-0.1-1.5,0.3-1.7,1.1c-0.1,0.7,0.4,1.5,1.1,1.6c5.2,1,8.1,4.5,8.1,4.6C2194.2,813,2194.5,813.2,2194.8,813.3z"></path> <path class="st11" d="M2163.8,801.2c0.4-0.1,0.7-0.4,0.9-0.8c0.3-0.7-0.1-1.5-0.8-1.8c-0.2-0.1-5.4-1.9-11.4,0.4 c-0.7,0.3-1.1,1.1-0.8,1.8c0.3,0.7,1.1,1,1.8,0.8c4.9-1.9,9.3-0.4,9.3-0.4C2163.2,801.3,2163.5,801.3,2163.8,801.2z"></path> <path class="st17" d="M2165.6,831c-3.6-1.9-3.7-5.2-3.2-6.8c0.1-0.3,0.3-0.5,0.6-0.7c5-2.7,6.9-8.7,6.9-8.8 c0.2-0.6,0.9-1,1.5-0.8c0.6,0.2,1,0.8,0.8,1.4c-0.1,0.3-2.1,6.5-7.6,9.8c-0.1,0.9,0,3.2,3.7,4.3c0.6,0.2,1,0.9,0.8,1.5 c-0.2,0.6-0.9,0.9-1.5,0.7C2166.8,831.6,2166.1,831.3,2165.6,831z"></path> <path class="st11" d="M2213.1,831.2c-5.1,5.8-8.7-43.4-31.8-48.9c-23.1-5.5-36.7,26.1-36.7,26.1s-2.4-19.5,8.7-33 c11-13.5,36-24.5,57.3-9.6C2231.9,780.9,2237.5,803.7,2213.1,831.2z"></path> <path class="st11" d="M2219.5,769.8c2.4-9.3,12.2-15,21.9-12.6c9.6,2.4,15.5,11.8,13,21.1s-12.2,15-21.9,12.6 C2222.9,788.6,2217.1,779.1,2219.5,769.8z"></path> <path class="st11" d="M2185.4,832.6c-0.6,0-1.3-0.1-1.9-0.3c-2.9-0.7-5.3-2.5-6.8-4.9c-1.5-2.5-2-5.4-1.2-8.2l0,0 c1.5-5.8,7.6-9.3,13.5-7.8c2.9,0.7,5.3,2.5,6.8,4.9c1.5,2.5,2,5.4,1.2,8.2C2195.7,829.6,2190.7,833,2185.4,832.6z M2176.3,819.4 c-0.7,2.6-0.3,5.2,1.1,7.5c1.4,2.3,3.6,3.9,6.3,4.5c5.5,1.3,11.1-1.9,12.5-7.2c0.7-2.6,0.3-5.2-1.1-7.5c-1.4-2.3-3.6-3.9-6.3-4.5 C2183.3,810.9,2177.7,814.1,2176.3,819.4L2176.3,819.4z"></path> <path class="st11" d="M2153.6,824.8c-0.6,0-1.3-0.1-1.9-0.3c-2.9-0.7-5.3-2.5-6.8-4.9c-1.5-2.5-2-5.4-1.2-8.2l0,0 c1.5-5.8,7.6-9.3,13.5-7.8c2.9,0.7,5.3,2.5,6.8,4.9c1.5,2.5,2,5.4,1.2,8.2C2163.9,821.9,2158.9,825.2,2153.6,824.8z M2155.2,804.2c-2.1-0.2-4.2,0.3-6,1.4c-2.4,1.4-4,3.5-4.7,6.1l0,0c-0.7,2.6-0.3,5.2,1.1,7.5c1.4,2.3,3.6,3.9,6.3,4.5 c5.5,1.3,11.1-1.9,12.5-7.2c0.7-2.6,0.3-5.2-1.1-7.5c-1.4-2.3-3.6-3.9-6.3-4.5C2156.4,804.3,2155.8,804.3,2155.2,804.2z"></path> <path class="st11" d="M2175.5,819.6c-5.4-5.1-10.3-2.7-10.5-2.6l-0.4-0.8c0.1,0,5.7-2.8,11.5,2.8L2175.5,819.6z"></path> <polygon class="st11" points="2214.2,827.3 2196.6,824.2 2196.8,823.4 2214.3,826.5 "></polygon> <path class="st7" d="M2205.4,828c0.8-1.1,2.1-1.9,3.4-2.2c2.8-0.7,7.7-1.1,10.5,2.5c4,5.3-7.4,16.1-16,8.6 C2203.4,837,2201.1,834,2205.4,828z"></path> <path class="st18" d="M2154.5,833.3c0,0,5.2-1.6,6.8-0.8s2,3.1,2,3.1s1.5-1.7,3.6-1.3c2.1,0.5,8.1,6,8.1,6s-8.8,7-14.8,4.3 C2154.1,841.9,2154.5,833.3,2154.5,833.3L2154.5,833.3z"></path> <path class="st4" d="M2175,840.3c0,0-12.7-3.6-20.5-7c0,0,2.1,7.2,7,8.4C2166.4,842.9,2175,840.3,2175,840.3z"></path> </g> <path class="st15" d="M2193.3,885.1c0,0,4.5-13.9-5.2-14.7c0,0-15.5,6.8-30.9-3.3c0,0-6.5-0.7-6.8,11.5c0,0-40.7,8.5-54.8,17 c-14,8.4-19.6,162.1,2.8,163.4l97.2,7.9c0,0,11-19.4,27-59.4c0,0,32.6-19.6,31.1-53.2C2251.8,910.8,2225,896.9,2193.3,885.1z"></path> <g> <path class="st11" d="M2064.1,933.2l69.3-6.1c0.7-0.1,1.2,0.4,1.3,1l8.9,93.2c0.1,0.6-0.4,1.2-1.1,1.2l-69.3,6.1 c-0.6,0.1-1.2-0.4-1.3-1l-8.9-93.2C2063,933.8,2063.5,933.2,2064.1,933.2z"></path> <polygon class="st14" points="2084,928.2 2112.9,925.6 2113.5,931.6 2084.5,934.1 "></polygon> <path class="st14" d="M2093.7,927.3c-0.2-2.6,1.7-4.8,4.3-5.1c2.6-0.2,5,1.6,5.2,4.2c0.2,2.6-1.7,4.8-4.3,5.1 C2096.2,931.8,2093.9,929.9,2093.7,927.3z"></path> </g> <path class="st7" d="M2113,972.5c0,0-10.8-14.1-15.9-18.3c-5.1-4.2-6.7-12-10.1-10.1c-3.4,1.9,2.3,13.1,2.3,13.1 s-13.3-3.1-17.2-4.7c-3.9-1.6-11.7-2.6-13.1,0.1c-1.4,2.7,18,8.9,18,8.9s-11.6-2.9-12.4,0.5c-0.7,2.8,12.6,7.9,12.6,7.9 s-9-2.7-11-2.7c-2.3-0.1-4.8,2.8,1.1,6c5.9,3.2,8.2,3.9,8.2,3.9s-6.8-1.4-8.4-1.2c-1.6,0.2-3.9,3.3,1.5,5.2 c9.4,3.3,28.6,8.1,40.3,6.5L2113,972.5z"></path> <path class="st15" d="M2222.7,1006.8c0,0-61.3,44.1-120.2-19l7.4-19.3c0,0,80.4,15.7,98.3-24.5L2222.7,1006.8z"></path> <path class="st11" d="M2172.8,1021.6c-10.2,0-21.8-1.5-34.6-5.5c-0.2-0.1-0.4-0.3-0.3-0.5c0.1-0.2,0.3-0.4,0.6-0.3 c50.9,16.1,83.2-8.2,83.5-8.5c0.2-0.1,0.5-0.1,0.6,0.1c0.2,0.2,0.1,0.5-0.1,0.6C2222.3,1007.6,2203.8,1021.6,2172.8,1021.6z"></path> <path class="st11" d="M2142.9,972.2c-2.2-0.2-3.6-0.3-3.7-0.4c-0.2,0-0.4-0.3-0.4-0.5c0-0.2,0.2-0.4,0.5-0.4c0,0,0,0,0,0 c0.6,0.1,55.3,7.2,66.4-27.2c0.1-0.2,0.3-0.3,0.6-0.3c0.2,0.1,0.4,0.3,0.3,0.5C2197,973.9,2155.5,973.2,2142.9,972.2z"></path> </g> <g> <path class="st5" d="M366.8,957.8c17.2,3.5,32.6,15.6,34.3,41.7c1.6,24.7-12.5,49.1-5.7,73.6c7,25.2,27.2,33.8,19.7,64.9 c-2.7,11.1-7,21.8-6.8,33.5c0.3,24.4,17.9,39.3,26.4,58.4c11,24.7,6.7,58.6-8.1,78.8c-28.3,38.4-75.9,24.4-111.4,20.6 c-20.6-2.2-39.1-16.5-44.2-45.4c-5.8-33.6,9.9-49.6,19.8-76.1c9.6-25.8-2-56.2-2.1-85c-0.2-32.2,19.2-49.8,22.9-79.4 c2.7-21.4-6.2-43.5,2.8-63.7c4.8-10.7,13.5-17.3,22.5-20.1C345.7,956.7,356.6,955.7,366.8,957.8z"></path> <rect x="203.2" y="1262.1" transform="matrix(3.996557e-03 -1 1 3.996557e-03 -910.2612 1614.3982)" class="st15" width="304.1" height="4.1"></rect> <polygon class="st15" points="353.5,1249.3 319.3,1176.1 323,1174.5 357.2,1247.6 "></polygon> <polygon class="st15" points="356.8,1302.3 353.5,1300.1 387.7,1253 391.1,1255.2 "></polygon> <path class="st15" d="M391.1,1468.1l-75.2-0.3c-2,0-3.7-1.7-3.7-3.7l0.3-59.3l82.6,0.3l-0.3,59.3 C394.8,1466.5,393.1,1468.2,391.1,1468.1z"></path> </g> <g> <path class="st7" d="M1291.6,1420.6c0,0-15.6,23.6-23,38.7c-2.5,5.2,49.1,37.4,42.7,27.2c-7.4-11.8-15.8-25.4-12.9-33.1 c5.5-14.3,15-25.1,15-25.1L1291.6,1420.6z"></path> <path class="st19" d="M1272.3,1452.1c17.9,30.2,29.9,31.5,35.8,29.2c1.8,2.9,3.6,5.7,5.2,8.4c5.5,8.8,9.7,16.1,7.2,18.4 c-6.1,5.8-54.8-33.2-55.7-37.5c-0.4-1.9,1.2-6.2,3.7-11.4C1269.7,1457.1,1271,1454.6,1272.3,1452.1z"></path> <path class="st7" d="M1463.5,1452.6c0,0-5.3,27.5-6.2,44.2c-0.3,5.8,60,16.8,50.2,9.7c-11.5-8.3-24.5-17.8-24.8-26 c-0.5-15.3,4.1-28.7,4.1-28.7L1463.5,1452.6z"></path> <path class="st19" d="M1457.9,1488.9c28.4,21.5,40,18.3,44.5,14.1c2.7,2,5.5,4,8.1,5.9c8.5,6.1,15.3,11.4,13.9,14.5 c-3.4,7.6-63.7-10.9-66.2-14.5c-1.1-1.7-1.3-6.1-1-11.9C1457.3,1494.4,1457.6,1491.7,1457.9,1488.9z"></path> <path class="st13" d="M1528.6,889c-6.5-4.8-13.8-9.6-16-17.2c-3.4-11.6,6.8-23.9,3.2-35.4c-2.9-9.1-13.3-14-18.5-22.1 c-4.8-7.5-4.6-16.9-7.2-25.3c-8.7-27.4-41.1-33.5-65.9-24.7c-3.8,1.3-7.3,3-10.6,5c-11.1,6.7-19.7,17.7-21.3,30.2 c-1.2,8.7,1,18.8-5.5,26.1c-5.9,6.7-15.7,7.2-23.6,10.4c-8.4,3.5-16.1,10.7-18.4,19.4c-2.8,10.4,1.5,22.9-5.5,31.3 c-5,6-13.4,7.2-20,10.7c-7.4,4-13.6,10.3-16.7,18c-5.5,13.5-1.7,34.8,13.4,37.4c43.5,7.5,0.9,41.2,76.2,43.4 c12.5,0.4,79-6.6,90.9-2.6c42.2,14.3,10.1-32.9,43.6-36.3c5.5-0.6,9.1-7.4,7.7-12.5c-0.7-2.3-2.3-4.3-3.1-6.6 c-3.7-10.3,9.9-19.4,10.2-30.3C1541.7,900.1,1535,893.7,1528.6,889z"></path> <path class="st20" d="M1484.8,827.8c0,0,4-4.3,6.3-2c5.8,5.9-2.4,11.5-7,12.2L1484.8,827.8z"></path> <path class="st7" d="M1452.3,763.6c-20.4-1.7-39.3,11.9-43.4,31.3c-1.4,6.4-1,12.7,0.6,18.5c3.4,14.4,6.3,26,10.8,34.8 c4.5,8.9,5.7,19.1,2.7,28.6l-3,9.6c21.7,14.8,33.8,5,33.8,5l3.6-22.7l0,0c25.9,0.8,29.6-45,31.7-58.4l0,0c0.1-0.5,0.2-1,0.3-1.5 C1492.8,786.4,1476.1,765.5,1452.3,763.6z"></path> <path class="st13" d="M1443.2,802.9c-5.7,4.1-10.9,8.9-16,13.7c-5.4,5.1-11.1,10.5-13.2,17.5c-5.8-5.8-8.9-13.6-11.3-21.3 c-1.1-3.6-2.1-7.2-2.1-11c0-5.3,2.2-10.3,4.3-15.2c2.7-6.3,5.6-12.8,11-17.2c3.6-2.9,8-4.6,12.5-5.9c10.5-2.9,21.8-3.5,32.3-0.5 c10.5,3,19.9,9.8,25,19.1c6.5,12,5.2,26.4,3.7,39.9c-0.5-5.8-3.6-11-6.6-16c-2-3.3-4-6.6-6.9-9c-5-4.2-6.7-3.7-15.5-11.5 C1456.5,793.4,1450.3,797.7,1443.2,802.9z"></path> <path class="st7" d="M1420.1,826.1c-0.5-1.4-1.4-2.5-2.7-3.2c-2.6-1.5-7.4-3.4-11.3-0.6c-5.7,4.1,2.3,18.2,13.1,13.4 C1419.3,835.7,1422.5,833.3,1420.1,826.1z"></path> <path class="st11" d="M1478.1,827.2c0.5-1.8-0.7-3.7-2.6-4.2c-1.9-0.5-3.8,0.7-4.3,2.5c-0.5,1.8,0.7,3.7,2.6,4.2 C1475.7,830.1,1477.6,829,1478.1,827.2z"></path> <path class="st11" d="M1444.2,825.9c0.5-1.8-0.7-3.7-2.6-4.2c-1.9-0.5-3.8,0.7-4.3,2.5c-0.5,1.8,0.7,3.7,2.6,4.2 C1441.8,828.8,1443.7,827.7,1444.2,825.9z"></path> <path class="st11" d="M1433.4,819.3c-0.4-0.1-0.8-0.3-1-0.7c-0.4-0.7-0.1-1.6,0.6-1.9c0.2-0.1,5.4-2.7,11.8-1.1 c0.8,0.2,1.3,1,1.1,1.7c-0.2,0.8-1.1,1.2-1.8,1c-5.4-1.3-9.7,0.9-9.7,0.9C1434.1,819.3,1433.7,819.4,1433.4,819.3z"></path> <path class="st11" d="M1470.2,818.7c-0.4-0.2-0.7-0.5-0.9-0.9c-0.3-0.8,0.2-1.6,1-1.8c0.2-0.1,5.8-1.7,11.9,0.9 c0.7,0.3,1.1,1.2,0.7,1.9c-0.3,0.7-1.2,1-2,0.7c-5-2.2-9.7-0.8-9.7-0.8C1470.9,818.8,1470.5,818.8,1470.2,818.7z"></path> <path class="st20" d="M1458.1,841.2c4.3,0,6.1-2.8,6.5-4.5c0.1-0.3,0-0.6-0.1-0.9c-3-5-1.6-11.4-1.6-11.4c0.1-0.7-0.3-1.3-1-1.4 c-0.7-0.1-1.3,0.3-1.5,0.9c-0.1,0.3-1.6,7,1.6,12.7c-0.4,0.9-1.7,2.9-5.7,2.1c-0.7-0.1-1.3,0.3-1.5,0.9c-0.1,0.7,0.3,1.3,1,1.4 C1456.7,841.1,1457.4,841.2,1458.1,841.2z"></path> <path class="st7" d="M1284.9,794.7c0,0,9.7-16.2,11.9-22.7c2.2-6.6,9.3-11.4,6-13.8c-3.3-2.4-12.3,7.6-12.3,7.6 s-2.4-13.9-2.5-18.2c-0.1-4.4-2.2-12.2-5.6-12.4c-3.3-0.2-1.5,20.8-1.5,20.8s-3.3-17.5-6.4-18.3c-3-0.8-2.2,22.1-2.2,22.1 s-2.6-18.9-4.2-20.2c-1.5-1.3-3.3,0.5-4.1,7.4c-0.8,6.9,0.3,14.1,0.3,14.1s-2.9-13.1-3.8-14.6c-0.9-1.5-3.3-2.8-3.3,7.5 c0,10.3,3.8,32.6,10.4,43.1L1284.9,794.7z"></path> <path class="st7" d="M1582.3,743.4c0,0-9.7-16.2-11.9-22.7c-2.2-6.6-9.3-11.4-6-13.8c3.3-2.4,12.3,7.6,12.3,7.6s2.4-13.9,2.5-18.2 c0.1-4.4,2.2-12.2,5.6-12.4c3.3-0.2,1.5,20.8,1.5,20.8s3.3-17.5,6.4-18.3c3-0.8,2.2,22.1,2.2,22.1s2.6-18.9,4.2-20.2 c1.5-1.3,3.3,0.5,4.1,7.4c0.8,6.9-0.3,14.1-0.3,14.1s2.9-13.1,3.8-14.6c0.9-1.5,3.3-2.8,3.3,7.5c0,10.3-3.8,32.6-10.3,43.1 L1582.3,743.4z"></path> <path class="st15" d="M1448.2,887.6c0,0,14.8-2.2,42.6-6.9c27.8-4.7,76.4-62.1,80.3-77.5c3.9-15.3,11-64.8,11-64.8h18.3 c0,0-2.4,68-9.5,90.2c-7.1,22.2-81.8,97.4-84.2,105.8c-2.4,8.4-27.1,91.3-27.1,95.1c0.1,3.8,16,40.7,16,40.7h-120.4l14.7-39.9 l-18.3-82.8c0,0-78.6-47.6-90.5-64.4c-11.9-16.9-15.1-91.4-15.1-91.4h19.1c0,0,11.6,65.6,19.9,77.6c8.3,12,99.9,18.6,112.3,17.7 C1429.6,886.1,1448.2,887.6,1448.2,887.6z"></path> <g> <path class="st18" d="M1467.2,849.5c0,0-3.9-3-5.6-2.7c-1.7,0.3-2.7,2.1-2.7,2.1s-0.8-2-2.7-2.2c-2-0.2-8.9,2.7-8.9,2.7 s5.3,8.7,11.3,8.2C1464.8,857.1,1467.2,849.5,1467.2,849.5L1467.2,849.5z"></path> <path class="st4" d="M1447.3,849.4c0,0,12.1,0.7,19.9,0.2c0,0-4.2,5.5-8.8,5.1C1453.9,854.2,1447.3,849.4,1447.3,849.4z"></path> </g> <path class="st16" d="M1481,1034.7c0,0,18.7,21.1,25.8,77c3.2,24.8,14.2,75.7,15.3,150.2c1.3,88.3-32.9,210.1-32.9,210.1l-35-2 c0,0,3.5-135.1,1.1-182.2c-1.3-24.9-14.8-100.1-16.1-136.8c0,0,0,67.1-30,136.5c-16.3,37.6-98.1,160.5-98.1,160.5l-29.6-22.7 c0,0,67.4-146.2,73.3-168.3c13.8-52.4-12.3-162.3,35.1-226.9C1389.9,1030.3,1442.7,1049.7,1481,1034.7z"></path> <polygon class="st10" points="1422.1,879.7 1446,956.1 1418.5,928.2 1422.7,920.3 1410.7,910 1408,886.9 "></polygon> <polygon class="st10" points="1454.5,886.7 1446,956.1 1463.4,921.4 1459.7,916.7 1467.2,913.4 1467.2,884.6 1455.6,879.7 "></polygon> <polygon class="st7" points="1422.1,879.7 1446,956.1 1455.6,879.7 "></polygon> <path class="st13" d="M1443.8,956.1c0-1.1,1-2.1,2.1-2.1c1.2,0,2.1,0.9,2.1,2.1s-1,2.1-2.1,2.1 C1444.8,958.1,1443.8,957.2,1443.8,956.1z"></path> <path class="st13" d="M1443.8,986.8c0-1.1,1-2.1,2.1-2.1c1.2,0,2.1,0.9,2.1,2.1c0,1.1-1,2.1-2.1,2.1 C1444.8,988.9,1443.8,988,1443.8,986.8z"></path> <path class="st13" d="M1443.8,1014.1c0-1.1,1-2.1,2.1-2.1c1.2,0,2.1,0.9,2.1,2.1c0,1.1-1,2.1-2.1,2.1 C1444.8,1016.2,1443.8,1015.3,1443.8,1014.1z"></path> </g> <g> <g> <path class="st7" d="M1700.8,1237.3c0,0,29.9,24.7,30.1,25.3c0.2,0.5,2.6,0.2,2.6,0.2l9.3-6.8l-4.4-16.1c0,0-17.4-16-20.6-20.2 C1714.6,1215.4,1700.8,1237.3,1700.8,1237.3z"></path> <path class="st8" d="M1738.4,1239.9c0,0,2.1,13.4-7.5,22.7c0,0,8,44.7,20.6,45.6c0,0,3.3,2.4,6.1-15.8 c2.7-18.2,7.4-46.5,7.1-47.3C1764.4,1244.4,1767.1,1241.2,1738.4,1239.9z"></path> </g> <g> <path class="st7" d="M1871.3,1275.5c0,0,31.1,23.4,31.3,23.9c0.2,0.5,2.6,0.1,2.6,0.1l9-7.2l-5.1-15.9c0,0-18.2-15.2-21.6-19.3 C1884.1,1253,1871.3,1275.5,1871.3,1275.5z"></path> <path class="st8" d="M1909,1276.4c0,0,2.7,13.2-6.4,23c0,0,10.2,44.3,22.8,44.7c0,0,3.4,2.3,5.3-16c1.9-18.3,5.2-46.7,4.8-47.6 C1935.2,1279.7,1937.7,1276.4,1909,1276.4z"></path> </g> <path class="st21" d="M1722.1,987.5c0,0-16.5,157.8,6.8,205.5s145.4,111.4,145.4,111.4l29.1-42.7c0,0-101.5-83.3-101.5-108.3 c0-34.9,27.2-186.6,27.2-186.6L1722.1,987.5z"></path> <path class="st21" d="M1674.4,937.6c0,0-104.6,158.6-103.1,208.6s134,120.1,134,120.1l29.2-43.9c0,0-81-61.5-79.8-83.4 c0.6-10.7,53.6-67.7,82.2-88.8c46.9-34.5,48-78.2,48-78.2L1674.4,937.6z"></path> <path class="st7" d="M1969.7,659c0,0-5.7-15.3-6.5-21.2c-0.8-6-6.1-11.2-2.9-12.7c3.2-1.6,9.3,8.4,9.3,8.4s4.3-11.5,5-15.2 c0.8-3.7,3.9-10.1,6.7-9.7c2.9,0.3-2.1,18-2.1,18s5.7-14.5,8.4-14.7c2.7-0.2-1.7,19.2-1.7,19.2s5.3-15.7,6.8-16.6 c1.5-0.9,2.8,1,2.3,7c-0.5,6-2.5,12-2.5,12s4.6-10.8,5.6-11.9c1-1.1,3.3-1.9,1.6,6.9c-1.7,8.8-8.5,27.3-15.8,35.3L1969.7,659z"></path> <path class="st7" d="M1686.2,595.7c0,0,8.5-14,10.5-19.7c1.9-5.7,8.2-9.9,5.3-12c-2.9-2.1-10.8,6.6-10.8,6.6s-2-12.1-2-15.9 c0-3.8-1.9-10.6-4.8-10.8c-2.9-0.2-1.4,18.1-1.4,18.1s-2.8-15.2-5.4-16c-2.6-0.7-2,19.2-2,19.2s-2.2-16.4-3.5-17.5 c-1.3-1.1-2.9,0.5-3.6,6.4c-0.7,6,0.2,12.3,0.2,12.3s-2.4-11.4-3.2-12.7c-0.8-1.3-2.8-2.5-2.9,6.5c-0.1,9,3.1,28.4,8.7,37.5 L1686.2,595.7z"></path> <path class="st10" d="M1750.3,747.6l51.6,12.4l-0.3,44.1l-36,180.4c0,0-8.7,4.8-44.6,2.5c-21.7-1.4-39.6-11.5-39.6-11.5 l37.5-186.1L1750.3,747.6z"></path> <path class="st9" d="M1750.3,747.6c0,0-32.3,140.3-54.5,265.3l-62.4-9.4c0,0,36.5-157.6,36.8-183c0.3-25.4-20.6-114.3-20.3-143.2 c0.3-28.9,16.3-88.8,16.3-88.8l28.9,7.1C1695.1,595.6,1674.6,703.8,1750.3,747.6z"></path> <polygon class="st14" points="1762.4,762.9 1765.9,774.7 1773,775.7 1780.5,767.4 1772.2,760.3 "></polygon> <path class="st9" d="M1993.7,662.8l-28.3-7.1c-14.7,19.8-38.1,47.5-61.4,62.6c-67,43.2-102,41.7-102,41.7s-24.9,127.9-30.4,163.9 c-3.9,25-11.5,94.8-11.5,94.8l63,5.7c0,0,19.7-177.8,47.8-201.5C1960.4,747.4,1993.7,662.8,1993.7,662.8z"></path> <g> <g> <path class="st22" d="M1751,690.7c0,0-2.1-4.9-4.8-3.6c-6.9,3.5-2,10.4,1.8,12.4L1751,690.7z"></path> <path class="st7" d="M1752.8,674.3L1752.8,674.3c0.1-0.5,0.2-0.9,0.3-1.4c3.9-20.5,24.9-33.8,46-28.6 c17.6,4.4,29.5,20.8,27.9,38.4c-0.6,6.5-3,12.4-6.5,17.4c-5,7.7-9.4,14.3-13.7,19.7c-7.1,8.9-11,19.8-11.2,31.1l-0.2,8.9 c-24.8,7.6-33-5.1-33-5.1l2.6-15.8c0.3-2.1-1-4-3.1-4.5c0,0,0,0,0,0C1734.3,727.5,1750.4,686.5,1752.8,674.3z"></path> <path class="st13" d="M1787,699.8c0.4-1.8,2.2-3,4.1-2.7c1.9,0.3,3.1,2.1,2.8,3.9c-0.4,1.8-2.2,3-4.1,2.7 C1787.9,703.4,1786.6,701.7,1787,699.8z"></path> <path class="st13" d="M1757.8,688.4c0.4-1.8,2.2-3,4.1-2.7c1.9,0.3,3.1,2.1,2.8,3.9c-0.4,1.8-2.2,3-4.1,2.7 C1758.7,692,1757.4,690.3,1757.8,688.4z"></path> <path class="st13" d="M1800.2,696.9c0.4,0.1,0.7,0,1.1-0.1c1.1-0.4,1.6-1.5,1.2-2.5c-1.2-3.1-5.6-8.3-14-6 c-1.1,0.3-1.7,1.4-1.4,2.5c0.3,1.1,1.4,1.7,2.5,1.4c6.9-1.9,9,3.3,9,3.6C1799,696.3,1799.6,696.7,1800.2,696.9z"></path> <path class="st13" d="M1769.2,685.9c0.4,0.1,0.7,0,1.1-0.1c1.1-0.4,1.6-1.5,1.2-2.5c-1.2-3.1-5.6-8.3-14-6 c-1.1,0.3-1.7,1.4-1.4,2.5c0.3,1.1,1.4,1.7,2.5,1.4c6.9-1.9,9,3.3,9,3.6C1767.9,685.3,1768.5,685.8,1769.2,685.9z"></path> <polygon class="st16" points="1829.3,689.2 1814.7,711.6 1808.2,709.1 1810.2,677.2 "></polygon> <path class="st7" d="M1807.4,708.1c0.8-1,2-1.7,3.3-2c2.7-0.5,7.4-0.8,9.9,2.7c3.7,5.2-7.6,15.2-15.5,7.8 C1805.1,716.6,1803,713.7,1807.4,708.1z"></path> <path class="st22" d="M1767.1,708.7c3,2.2,6.2,1,6.3,0.9c0.3-0.1,0.5-0.5,0.3-0.8c-0.1-0.3-0.5-0.5-0.8-0.3 c-0.2,0.1-3.8,1.3-6.5-2.1c-0.4-0.6-0.6-1-0.6-1.3c0.1-0.4,0.6-0.8,1.5-1.4c1.9-1.3,5-3.6,7-9.6c0.1-0.3-0.1-0.6-0.4-0.7 c-0.3-0.1-0.7,0.1-0.8,0.4c-1.9,5.7-4.7,7.7-6.6,9c-1,0.7-1.8,1.3-1.9,2.2c-0.1,0.6,0.2,1.3,0.8,2.2 C1766,707.8,1766.6,708.3,1767.1,708.7z"></path> <path class="st4" d="M1779.7,717.3c0,0-14.3-0.8-22.3-6.4c0,0,0.2,10.8,8.1,13.1C1773.5,726.2,1779.7,717.3,1779.7,717.3z"></path> <path class="st16" d="M1761.3,661.5c0,0-6,2.7-11.4,24.1c0,0,2.9-24.5,6.1-26.7C1759.3,656.7,1761.3,661.5,1761.3,661.5z"></path> </g> <path class="st16" d="M1833.2,681.8c1-5.3,0.1-10.7-1.2-15.9c2.4,1,5.1,2.1,7.6,1.2c2.5-0.9,3.6-4.8,1.3-6 c-1.3-0.7-3-0.2-4.5-0.4c-3.4-0.5-4.8-4.7-4.9-8.1c-0.1-3.4,0.1-7.3-2.5-9.6c-0.8-0.7-1.8-1.2-2.9-1.4c-1.9,3.5-2.6,7.7-1.9,11.6 c-2.5-5.9-6.2-11.3-10.9-15.7c-3.6-3.5-8.3-6.5-13.3-6.4c-2.1,3.4,3.6,6.9,3.2,10.9c-7.7-4.4-16-7.7-24.7-9.7 c-2.2-0.5-4.6-0.9-6.8-0.6c-2.3,0.4-4.5,1.7-5.4,3.7c-1.1,2.7,0.8,6.2,3.8,6.8c-4.8,0.7-9.7,1.4-14.2,3.2 c-4.5,1.9-8.6,5.1-10.4,9.4c3.1,0.9,6.5,1.1,9.6,0.4c-2.4,1.2-4.8,3.2-4.6,5.8c0.2,1.9,1.8,3.5,3.7,4.1c1.9,0.7,3.9,0.6,5.9,0.6 c10-0.2,20-0.4,30-0.6c-4.7,2.7-8.7,6.6-11.5,11.2c8.6,1.5,17.6,0.4,25.5-3c-0.4,4-0.2,8.1,0.5,12.1c0.1,0.6,0.3,1.3,0.7,1.7 c1.5,1.5,3.8-0.7,5.9-1.5c2.5-0.9,5.3,0.6,7.2,2.5c3.2,3.2,5,7,9.4,3.4C1830.7,689.3,1832.5,685.4,1833.2,681.8z"></path> </g> <polygon class="st15" points="1797.9,759 1795.6,751 1772.8,760 1763.8,746.5 1759.2,749.8 1761.2,767.3 1771.9,763.4 1783.7,772.7 "></polygon> <path class="st14" d="M1764.6,770c0,0-57.4,143.9,82.7,189.4l32-9.4l-15-24.1c0,0-118.2-15.1-88-153.9L1764.6,770z"></path> </g> <g> <path class="st11" d="M761.5,738.6c0,0-30.6-1.3-42.8,15.1c-12.2,16.4-13.9,28.8-27.8,34.4c-13.9,5.6-20.5,27-6.6,32.4 c13.9,5.4,1.4,18.7,19.3,23.8c18,5.1,28.9-2.7,34,4.2c5.1,6.9,12.3,3.5,21.8-1.7c9.5-5.2,13.9,11.5,31,9.2 c17.2-2.3,11.8-13.2,25.6-11.1c17.3,2.5,29.2-13.7,21.2-22.1C807.2,791.2,834.5,726.9,761.5,738.6z"></path> <g> <path class="st7" d="M552.4,1216.4c0,0-50.1-17.3-57.6-14.2c-4.2,1.8-33,56.9-25.6,61.4c7.3,4.5,35.1-35.3,51.1-33.3 c15.9,2,29.1,8.7,29.1,8.7L552.4,1216.4z"></path> <path class="st11" d="M515.6,1205.1c-26.9,23.8-25.4,35.5-21.7,40.5c-10.8,9.8-20.7,20.3-24.7,17.9c-7.3-4.5,21.4-59.6,25.6-61.4 C497.6,1201,506,1202.6,515.6,1205.1z"></path> </g> <g> <path class="st7" d="M779.1,1434.4c0,0-6.2,52.7-1.2,59.1c2.9,3.7,67.4,18.6,70.4,10.4c3-8.2-45.4-25.8-47-41.7 c-1.7-15.9,2.1-30.3,2.1-30.3L779.1,1434.4z"></path> <path class="st11" d="M776,1472.7c31.3,20.5,43.2,16.3,47.6,11.5c12.9,8.1,26.2,15.3,24.6,19.7c-3,8.2-67.5-6.8-70.4-10.4 C776.1,1491.2,775.7,1482.6,776,1472.7z"></path> </g> <path class="st7" d="M709.8,1024.7c0,0-20.1,39.6-26.9,63.1c-6.8,23.4-13.6,124.7-21.4,134.1c-7.8,9.4-124.1-10.4-124.1-10.4 l-14,19.3c0,0,133.8,62.6,161.3,57.7c37.1-6.7,78.2-142.5,78.2-142.5s18.9,127.5,15,155.7c-3.9,28.1-1.1,156.5-1.1,156.5l24.1,1.2 c0,0,27.5-104.2,39.1-230.8c11.7-126.6-44.4-203.7-44.4-203.7H709.8z"></path> <path class="st11" d="M708.8,1018.1c0,0-27.8,45.2-31.9,74.1c-4.1,28.8-23.2,130.6-23.2,130.6l19.8,7.9l15.8-30l2.3,34.2 c0,0,98.3,22.2,157.7-12.2c0,0-12.9-154-44.8-207.7L708.8,1018.1z"></path> <path class="st7" d="M646.9,895.4c0,0-84.5-33.7-94.2-114.3l16.2-0.3c0,0,25.6,65,99.4,84.7L646.9,895.4z"></path> <path class="st15" d="M838.7,928.3c-8.4,6.8-13.8,20.4-13.8,55.6s-29.1,40.8-29.1,40.8h-85.9c-19.7-6.3-17.5-80.9-15.7-90 c1.1-5.5-72.8-38.8-113.6-80.7c-27.5-28.2-27.1-71.1-27.1-71.1l15.5-2.1c0,0,18.4,32.1,45.1,50.6c31.8,22.1,74.1,28.9,82.8,30.4 c10.3,1.8,28.1,2.3,39.5,2.4c4.1,0.1,7.3,0,9.1,0c1,0,1.5,0,1.5,0s36.8,2.5,51-0.7c86.7-19.4,103.7-136.1,103.7-136.1l15.5,2.1 C917.1,729.6,938.9,846.9,838.7,928.3z"></path> <path class="st23" d="M807.9,807.4c0,0,3.9-4.2,6.2-1.9c5.7,5.8-2.3,11.2-6.8,11.9L807.9,807.4z"></path> <path class="st7" d="M776.2,744.9c-19.9-1.6-38.2,11.6-42.3,30.5c-1.3,6.2-1,12.3,0.6,18c3.3,14,6.2,25.3,10.5,33.9 c4.4,8.7,5.5,18.6,2.6,27.9l-2.9,9.4c21.2,14.4,32.9,4.8,32.9,4.8l3.5-22.1l0,0c25.2,0.8,28.8-43.8,30.9-56.9l0,0 c0.1-0.5,0.2-1,0.3-1.5C815.7,767.2,799.4,746.9,776.2,744.9z"></path> <path class="st11" d="M767.3,783.2c-5.6,4-10.6,8.7-15.6,13.4c-5.3,4.9-10.8,10.2-12.9,17c-5.6-5.6-8.6-13.2-11-20.7 c-1.1-3.5-2.1-7-2-10.7c0-5.1,2.1-10,4.2-14.8c2.6-6.1,5.5-12.5,10.7-16.8c3.5-2.8,7.8-4.5,12.2-5.7c10.2-2.9,21.2-3.4,31.4-0.5 c10.2,2.9,19.4,9.5,24.3,18.6c6.3,11.7,5,25.7,3.6,38.9c-0.5-5.6-3.5-10.7-6.4-15.6c-1.9-3.2-3.9-6.4-6.7-8.8 c-4.9-4.1-6.5-3.6-15.1-11.2C780.2,773.9,774.3,778.1,767.3,783.2z"></path> <path class="st7" d="M744.9,805.9c-0.4-1.3-1.4-2.4-2.6-3.1c-2.5-1.5-7.2-3.3-11-0.6c-5.6,4,2.2,17.8,12.8,13 C744,815.1,747.2,812.9,744.9,805.9z"></path> <path class="st11" d="M799.3,806.9c0.5-1.8-0.7-3.6-2.5-4.1c-1.9-0.5-3.7,0.6-4.2,2.4c-0.5,1.8,0.7,3.6,2.5,4.1 C796.9,809.7,798.8,808.6,799.3,806.9z"></path> <path class="st11" d="M766.3,805.6c0.5-1.8-0.7-3.6-2.5-4.1c-1.9-0.5-3.7,0.6-4.2,2.4c-0.5,1.8,0.7,3.6,2.5,4.1 C764,808.5,765.9,807.4,766.3,805.6z"></path> <path class="st11" d="M760.7,793c-0.4-0.1-0.8-0.3-1-0.7c-0.4-0.7-0.1-1.5,0.6-1.9c0.2-0.1,5.3-2.6,11.5-1.1 c0.8,0.2,1.2,0.9,1,1.7c-0.2,0.7-1,1.2-1.8,1c-5.2-1.3-9.4,0.8-9.5,0.9C761.3,793,761,793,760.7,793z"></path> <path class="st11" d="M791.4,793.3c-0.4-0.2-0.6-0.5-0.7-1c-0.1-0.8,0.4-1.5,1.2-1.6c0.2,0,5.8-0.9,11.3,2.4 c0.7,0.4,0.9,1.3,0.4,1.9c-0.4,0.7-1.3,0.8-2,0.4c-4.5-2.8-9.2-2.1-9.3-2.1C792.1,793.6,791.7,793.5,791.4,793.3z"></path> <path class="st23" d="M779.4,820.5c4.2,0,6-2.7,6.4-4.4c0.1-0.3,0-0.6-0.1-0.9c-3-4.8-1.6-11-1.6-11.1c0.1-0.6-0.3-1.3-0.9-1.4 c-0.6-0.1-1.3,0.3-1.4,0.9c-0.1,0.3-1.5,6.8,1.6,12.3c-0.4,0.9-1.7,2.8-5.5,2c-0.7-0.1-1.3,0.3-1.4,0.9c-0.1,0.6,0.3,1.3,1,1.4 C778,820.4,778.7,820.5,779.4,820.5z"></path> <path class="st7" d="M568.9,780.8c0,0,8.8-14.7,10.8-20.7c2-6,8.5-10.4,5.5-12.6c-3-2.2-11.2,6.9-11.2,6.9s-2.2-12.6-2.2-16.6 c-0.1-4-2-11.1-5-11.2c-3-0.2-1.4,18.9-1.4,18.9s-3-15.9-5.8-16.7c-2.7-0.7-2,20.1-2,20.1s-2.4-17.1-3.8-18.3 c-1.4-1.2-3,0.5-3.7,6.8c-0.7,6.3,0.3,12.8,0.3,12.8s-2.6-11.9-3.4-13.2c-0.8-1.3-3-2.6-3,6.8c0,9.4,3.4,29.7,9.4,39.1 L568.9,780.8z"></path> <path class="st7" d="M901.6,727.5c0,0-8.8-14.7-10.8-20.7c-2-6-8.5-10.4-5.5-12.6c3-2.2,11.2,6.9,11.2,6.9s2.2-12.6,2.2-16.6 c0.1-4,2-11.1,5-11.2c3-0.2,1.4,18.9,1.4,18.9s3-15.9,5.8-16.7c2.7-0.7,2,20.1,2,20.1s2.4-17.1,3.8-18.3c1.4-1.2,3,0.5,3.7,6.8 c0.7,6.3-0.3,12.8-0.3,12.8s2.6-11.9,3.4-13.2c0.8-1.3,3-2.6,3,6.8c0,9.4-3.4,29.7-9.4,39.1L901.6,727.5z"></path> <path class="st11" d="M739.1,952c6.4,0,14.1-1.5,22.8-5.8c0.4-0.2,0.5-0.6,0.3-1c-0.2-0.4-0.7-0.5-1-0.3 c-25.1,12.7-41.6,0.2-41.8,0.1c-0.3-0.2-0.8-0.2-1,0.1c-0.3,0.3-0.2,0.8,0.1,1C718.5,946.2,726.2,952,739.1,952z"></path> <g> <path class="st18" d="M791.8,827.8c0,0-4.7-3.5-6.6-3.2c-2,0.3-3.3,2.4-3.3,2.4s-0.9-2.3-3.2-2.6c-2.3-0.3-10.5,3.2-10.5,3.2 s6.3,10.3,13.5,9.8C788.9,836.8,791.8,827.8,791.8,827.8L791.8,827.8z"></path> <path class="st4" d="M768.1,827.6c0,0,14.3,0.9,23.6,0.2c0,0-5,6.6-10.4,6.1C775.9,833.3,768.1,827.6,768.1,827.6z"></path> </g> <path class="st7" d="M775.6,894.7c0,0,8.7-5.1,4.9-23.4l-2.5-8.8l-32.6,2c0,0,1.9,10.1,6,14.8c4.1,4.7,18.8,13.1,18.8,13.1 L775.6,894.7z"></path> <path class="st4" d="M775.6,894.7c0,0-10.9,6.6-16.1,2c-5.2-4.6-1.4-10.3-1.4-10.3s-12.4,3-15.2-3.5c-2.8-6.5,2.8-11.3,2.8-11.3 s-15.1,2.3-15.9-7.4c1.7-3.6,7.6-6.2,16.9-5.6C750.8,867.2,758.4,886.1,775.6,894.7z"></path> <path class="st4" d="M778.3,865.2c0,0,6.3,18.8-2.6,29.4c0,0,9.2,1,11.6-4.3c2.4-5.3-2.3-8.5-2.3-8.5s6.1-2.5,5.3-8.5 c-0.8-6-5-6-5-6s-1.4-6.1-6.4-6.3L778.3,865.2z"></path> <path class="st11" d="M774.7,894.7c0-0.5,0.4-0.9,1-0.9s1,0.4,1,0.9c0,0.5-0.4,0.9-1,0.9S774.7,895.2,774.7,894.7z"></path> <path class="st11" d="M774.7,929.2c0-0.5,0.4-0.9,1-0.9s1,0.4,1,0.9c0,0.5-0.4,0.9-1,0.9S774.7,929.7,774.7,929.2z"></path> <path class="st11" d="M774.7,969c0-0.5,0.4-0.9,1-0.9s1,0.4,1,0.9c0,0.5-0.4,0.9-1,0.9S774.7,969.5,774.7,969z"></path> <path class="st11" d="M774.7,1003.4c0-0.5,0.4-0.9,1-0.9s1,0.4,1,0.9s-0.4,0.9-1,0.9S774.7,1004,774.7,1003.4z"></path> <g> <path class="st11" d="M753.5,804.3c0.2-2.9,1.5-5.5,3.8-7.4c2.2-1.9,5.1-2.8,8.1-2.6c6.1,0.4,10.8,5.5,10.4,11.5l0,0 c-0.2,2.9-1.5,5.5-3.8,7.4c-2.2,1.9-5.1,2.8-8.1,2.6c-0.6,0-1.3-0.1-1.9-0.3C756.8,814.3,753.2,809.6,753.5,804.3z M774.9,805.7 c0.4-5.4-3.9-10.2-9.5-10.5c-2.7-0.2-5.4,0.7-7.4,2.4c-2.1,1.7-3.3,4.2-3.5,6.8c-0.4,5.5,3.9,10.2,9.5,10.5 c2.7,0.2,5.4-0.7,7.4-2.4C773.5,810.8,774.7,808.3,774.9,805.7L774.9,805.7z"></path> <path class="st11" d="M786.2,806.4c0.2-2.9,1.5-5.5,3.8-7.4c2.2-1.9,5.1-2.8,8.1-2.6c6.1,0.4,10.8,5.5,10.4,11.5l0,0 c-0.2,2.9-1.5,5.5-3.8,7.4c-2.2,1.9-5.1,2.8-8.1,2.6c-0.6,0-1.3-0.1-1.9-0.3C789.5,816.4,785.8,811.7,786.2,806.4z M798,797.3 c-2.7-0.2-5.4,0.7-7.4,2.4c-2.1,1.7-3.3,4.2-3.5,6.8c-0.4,5.5,3.9,10.2,9.5,10.5c2.7,0.2,5.4-0.7,7.4-2.4 c2.1-1.7,3.3-4.2,3.5-6.8l0,0c0.2-2.6-0.7-5.2-2.5-7.2c-1.4-1.6-3.2-2.6-5.3-3.1C799.2,797.4,798.6,797.3,798,797.3z"></path> <path class="st11" d="M775.5,806.1c6.7-3.2,10.6,0.5,10.8,0.6l0.6-0.6c0,0-4.5-4.4-11.8-0.8L775.5,806.1z"></path> <polygon class="st11" points="743.5,803.6 754,804.2 754.1,803.3 743.6,802.7 "></polygon> </g> </g> </g> </svg> 